<svg width="45" height="45" viewBox="0 0 45 45" fill="none" xmlns="http://www.w3.org/2000/svg">
<path d="M16.7412 1C25.4349 1 32.4823 8.04756 32.4824 16.7412C32.4824 19.5514 31.743 22.1905 30.4512 24.4756L42.7627 36.7881C44.4118 38.4378 44.4125 41.1129 42.7627 42.7627C41.1129 44.4125 38.4378 44.4118 36.7881 42.7627L24.4756 30.4512C22.1905 31.743 19.5514 32.4824 16.7412 32.4824C8.04756 32.4823 1 25.4349 1 16.7412C1.00011 8.04763 8.04763 1.00011 16.7412 1Z" fill="#EBE2B9" stroke="#EBE2B9" stroke-width="2"/>
<path d="M17 2C25.2843 2 32 8.71573 32 17C32 19.9568 31.1431 22.713 29.666 25.0361L40.8545 36.1123L42 40.9326C41.8918 41.0873 41.7681 41.2353 41.6289 41.373C41.4696 41.5307 41.2975 41.6686 41.1162 41.7861L39.8174 42L39.1729 41.7871L30.5205 34.8682L25.1758 29.5762C22.8238 31.1083 20.0163 32 17 32C8.71573 32 2 25.2843 2 17C2 8.71573 8.71573 2 17 2Z" fill="black"/>
<path d="M41.6074 36.9453C43.0641 38.1474 43.2294 39.3682 42.2344 40.1152L41.4229 36.792L41.6074 36.9453Z" fill="black"/>
<circle cx="17" cy="17" r="11.5" fill="black" stroke="#EBE2B9"/>
<path d="M30.67 31.4409C30.6121 31.3275 30.6708 31.3076 30.7755 31.3754C30.9284 31.4745 31.014 31.5968 31.1271 31.6137C31.3531 31.6472 31.446 31.6653 31.5538 31.8852C31.6617 32.1047 31.8665 32.0553 31.9474 32.1655C32.0276 32.2754 31.9524 32.3495 32.4952 32.7768C33.039 33.2048 33.3197 33.4573 33.5177 33.6274C33.7156 33.7975 34.0351 34.2465 34.3585 34.5229C34.682 34.7994 35.2704 35.4309 35.5548 35.6381C35.8388 35.8452 35.7559 35.9298 35.9073 36.1752C36.059 36.4207 36.4231 36.3697 36.6358 36.6411C36.8485 36.9125 36.7752 37.0595 37.0772 37.3119C37.3788 37.5642 37.5805 37.9171 37.7491 37.9955C37.9174 38.0737 37.794 38.2238 37.9991 38.3686C38.2048 38.5135 38.2937 38.6376 38.4024 38.8354C38.5113 39.0333 38.945 39.5418 39.171 39.6586C39.3967 39.7754 39.498 40.0656 39.5929 40.2055C39.6223 40.2489 39.6404 40.2878 39.6524 40.3198C39.6575 40.3332 39.6532 40.3462 39.6446 40.3549C39.6337 40.3656 39.6159 40.3703 39.6026 40.3598C39.5376 40.3081 39.4334 40.2377 39.2911 40.1743C39.0256 40.0558 39.0858 39.9532 38.7892 39.7319C38.4919 39.5103 38.2594 39.4297 38.003 39.0756C37.7468 38.7221 37.4721 38.8562 37.1573 38.31C36.8424 37.7633 36.5828 37.9314 36.1251 37.5307C35.6675 37.1299 35.2433 36.4703 34.9747 36.2211C34.7061 35.9721 34.3339 35.6485 33.9952 35.2534C33.6565 34.8583 33.132 34.4763 32.7774 34.0209C32.423 33.5658 31.9145 32.9297 31.6925 32.6225C31.4707 32.3155 31.4145 32.2407 31.1339 32.0121C30.9728 31.8808 30.7851 31.6658 30.67 31.4409Z" fill="#EBE2B9"/>
<path d="M34.6808 32.3383C34.7253 32.3701 34.7999 32.4102 34.9063 32.4389C35.1048 32.4924 35.037 32.5879 35.2433 32.7211C35.4495 32.8542 35.6268 32.882 35.7755 33.1313C35.9243 33.3805 36.1753 33.2248 36.338 33.6235C36.5007 34.0216 36.7468 33.8388 37.0538 34.0932C37.3609 34.3478 37.5938 34.8221 37.7716 34.9828C37.9493 35.1435 38.1989 35.3482 38.4083 35.6176C38.6179 35.8873 38.9844 36.1153 39.1964 36.4321C39.4084 36.7488 39.7162 37.1892 39.8448 37.4057C39.9732 37.6217 40.0051 37.6741 40.1964 37.8159C40.3063 37.8974 40.4236 38.0438 40.4786 38.2104C40.5062 38.2941 40.4543 38.3199 40.38 38.2817C40.2711 38.2254 40.2216 38.1401 40.131 38.145C39.9497 38.155 39.8761 38.1543 39.8263 37.9907C39.7763 37.828 39.5984 37.9024 39.5509 37.8256C39.5041 37.7482 39.5792 37.6737 39.2062 37.4116C38.833 37.1493 38.6451 36.9886 38.5118 36.8813C38.3784 36.7738 38.1949 36.4558 37.9767 36.2817C37.7583 36.1074 37.3839 35.6846 37.1856 35.561C36.9879 35.4375 37.0715 35.3534 36.9903 35.1762C36.9087 34.999 36.5982 35.1011 36.4708 34.9125C36.3437 34.7241 36.4304 34.591 36.2257 34.433C36.0467 34.2948 35.9448 34.0802 35.838 34.0043L35.756 33.9623C35.6946 33.9092 35.7776 33.7889 35.6515 33.7143C35.5073 33.6291 35.456 33.5418 35.4015 33.3969C35.3467 33.2516 35.0784 32.9037 34.9122 32.8452C34.7468 32.7862 34.7156 32.564 34.6622 32.4643C34.6455 32.4332 34.6362 32.4038 34.6319 32.3793C34.6305 32.3692 34.6362 32.3575 34.6446 32.3491C34.6555 32.3384 34.6715 32.3321 34.6808 32.3383Z" fill="#EBE2B9"/>
<path d="M29.6798 27.3364C29.7124 27.3556 29.7687 27.3769 29.8536 27.3832C30.0123 27.3951 29.9408 27.4874 30.0938 27.5649C30.2467 27.6421 30.3919 27.6357 30.4786 27.8198C30.5547 27.9807 30.7442 27.8687 30.8409 28.0444L30.9112 28.2319C31.0097 28.4028 31.2136 28.2719 31.4054 28.4135C31.6244 28.5757 31.7475 28.9348 31.8722 29.0405C31.9969 29.1457 32.1759 29.2761 32.3106 29.4672C32.4455 29.6585 32.7191 29.7886 32.8487 30.019C32.9783 30.2492 33.1693 30.5668 33.2442 30.727C33.3192 30.8872 33.3384 30.926 33.4776 31.0131C33.5574 31.0632 33.6327 31.167 33.6534 31.2973C33.6635 31.3626 33.6161 31.393 33.5597 31.3735C33.477 31.3443 33.4481 31.2801 33.3712 31.2993C33.2175 31.3378 33.1556 31.3505 33.1388 31.2221C33.1219 31.0933 32.9606 31.1854 32.9327 31.1284C32.9054 31.0713 32.98 30.9969 32.7071 30.8393C32.4335 30.6814 32.2999 30.5771 32.2042 30.5092C32.1086 30.4411 32.0025 30.2048 31.8458 30.0952C31.6891 29.9853 31.4399 29.6946 31.2921 29.6235C31.1443 29.5528 31.2269 29.4678 31.1856 29.3325C31.1443 29.1974 30.8687 29.3349 30.7901 29.1987C30.7119 29.0617 30.8053 28.9348 30.6573 28.8364C30.5096 28.7379 30.4615 28.5394 30.3614 28.5297C30.2617 28.52 30.3925 28.377 30.2843 28.3295C30.1762 28.2821 30.1467 28.2173 30.1231 28.1049C30.0994 27.9922 29.9277 27.7447 29.797 27.7231C29.6668 27.7014 29.6741 27.5207 29.6446 27.4457C29.6354 27.4225 29.6327 27.3991 29.6329 27.3793C29.6333 27.3711 29.6392 27.3605 29.6476 27.352C29.6583 27.3413 29.673 27.3328 29.6798 27.3364Z" fill="#EBE2B9"/>
<path d="M15.0372 7.5639C15.1408 7.58127 15.2885 7.59691 15.4767 7.59515C15.8275 7.59402 15.8251 7.71257 16.2706 7.80804C16.7092 7.90471 17.0051 7.89989 17.4737 8.16449C17.9337 8.43147 18.1694 8.2132 18.7794 8.68597C19.38 9.16731 19.5874 8.93305 20.2667 9.27875C20.9477 9.6271 21.6381 10.3233 21.9991 10.6C22.0776 10.6586 22.1619 10.7221 22.2501 10.7905C22.5779 11.0439 22.9534 11.3742 23.2755 11.7778C23.6856 12.2858 24.2531 12.8773 24.5675 13.5297C24.8906 14.1759 25.2437 15.1191 25.3595 15.5707C25.4772 16.0184 25.5027 16.1263 25.6808 16.5327C25.782 16.7671 25.8669 17.1132 25.8605 17.4164C25.8565 17.5713 25.7956 17.5462 25.7364 17.4135C25.6465 17.2117 25.6195 17.0356 25.5226 16.9506C25.3279 16.7808 25.2506 16.7105 25.2335 16.4233C25.2146 16.1351 24.9974 16.076 24.9581 15.9213C24.9133 15.7656 25.0279 15.7183 24.6036 15.0121C24.1698 14.3146 23.9099 13.9532 23.7296 13.7065C23.5505 13.4608 23.2544 12.8818 22.9024 12.5258C22.6257 12.2336 22.1197 11.6979 21.7325 11.4125C21.641 11.3431 21.558 11.285 21.4903 11.2446C21.1351 11.0356 21.2054 10.9423 20.9728 10.6928C20.735 10.4438 20.3556 10.5423 20.0353 10.2953C19.7113 10.0499 19.7355 9.88328 19.3077 9.68695C18.8811 9.49337 18.5037 9.19237 18.2872 9.16156C18.0706 9.13058 18.1319 8.9438 17.8429 8.86175C17.5507 8.78026 17.3965 8.68868 17.1759 8.53168C16.9579 8.37216 16.2194 8.04243 15.9142 8.02679C15.6129 8.00778 15.3321 7.78337 15.1485 7.69964C15.0879 7.6725 15.0494 7.64753 15.0128 7.62347C15.0042 7.61494 14.9935 7.59923 15.0001 7.58832C15.0001 7.57262 15.0195 7.56136 15.0372 7.5639Z" fill="#EBE2B9"/>
<path d="M19.6788 7.33148C19.7375 7.35251 19.8274 7.37366 19.9454 7.3764C20.1687 7.38287 20.1321 7.49305 20.3888 7.5805C20.6446 7.66832 20.8396 7.66018 21.0724 7.88421C21.3029 8.10848 21.5216 7.90242 21.8058 8.2846C22.0853 8.66837 22.2933 8.44384 22.6847 8.67718C23.0766 8.91097 23.4196 9.41101 23.628 9.5932C23.6745 9.63276 23.7259 9.6763 23.7774 9.72211C23.9657 9.88942 24.1736 10.1031 24.3399 10.3598C24.5527 10.6866 24.9123 11.0143 25.088 11.4067C25.2649 11.7974 25.4964 12.3477 25.5821 12.6147C25.6673 12.8795 25.6895 12.945 25.8487 13.1537C25.9402 13.2745 26.0215 13.4653 26.0353 13.6586C26.0397 13.7519 25.9839 13.7631 25.919 13.6957C25.8262 13.6013 25.798 13.4965 25.7062 13.4702C25.5223 13.4182 25.4517 13.3986 25.4386 13.2143C25.425 13.0295 25.2299 13.052 25.1993 12.9584C25.1679 12.8649 25.2631 12.8098 24.9376 12.433C24.6103 12.0584 24.4427 11.8496 24.3233 11.7084C24.2048 11.5674 24.0588 11.2016 23.8497 10.9877C23.6839 10.8149 23.4153 10.4718 23.2042 10.2953C23.1543 10.2529 23.106 10.2163 23.0655 10.1928C22.8563 10.0736 22.9333 9.98545 22.8272 9.80804C22.7172 9.63016 22.4127 9.76286 22.2491 9.58734C22.0831 9.41155 22.1442 9.26308 21.8966 9.13128C21.6491 9.0006 21.474 8.75729 21.3341 8.74261C21.1962 8.72843 21.2887 8.55848 21.1173 8.49945C20.9436 8.44028 20.8669 8.36289 20.7657 8.22699C20.6664 8.09123 20.2801 7.79848 20.0909 7.77972C19.9002 7.75879 19.797 7.54795 19.7042 7.46039C19.6792 7.43542 19.6589 7.4088 19.6446 7.38519C19.6407 7.3763 19.6403 7.36198 19.6476 7.35199C19.6523 7.33705 19.6699 7.32885 19.6788 7.33148Z" fill="#EBE2B9"/>
</svg>
