<svg width="45" height="27" viewBox="0 0 45 27" fill="none" xmlns="http://www.w3.org/2000/svg">
<path d="M23.124 25.7803C22.7324 26.0886 22.1663 26.0665 21.7998 25.7139L2.33886 6.98731C1.68424 6.35696 2.12998 5.25015 3.03906 5.25L41.9609 5.25C42.8699 5.25015 43.3159 6.35685 42.6611 6.9873L23.2002 25.7139L23.124 25.7803Z" fill="#EBE2B9" stroke="#EBE2B9" stroke-width="2"/>
<path d="M39.8437 6.54479L41 6.69019L38.8443 8.7282L39.8437 6.54479Z" fill="black"/>
<path d="M20.991 6L35.518 6L39.0046 6.43921L37.499 9.99939L23.936 22.8199L21.5581 24L9.81476 12.8995L4.92417 7.09623L20.991 6Z" fill="black"/>
<path d="M16.2209 6L4.67544 6.80181L4 6L16.2209 6Z" fill="black"/>
<path d="M34.976 11.1592C34.9905 11.1641 34.9968 11.177 34.9828 11.1924C34.914 11.2674 34.821 11.3828 34.7367 11.5274C34.5793 11.7974 34.4411 11.7878 34.1459 12.125C33.8511 12.4619 33.7449 12.6883 33.2729 13.043C32.8006 13.3978 32.9799 13.5758 32.2504 14.0557C31.521 14.5354 31.748 14.6881 31.2143 15.2305C30.6799 15.7733 29.7972 16.39 29.4652 16.7139C29.1334 17.0377 28.703 17.4779 28.1762 17.918C27.6492 18.3583 27.1411 18.9494 26.5336 19.4268C25.9261 19.9042 25.0774 20.583 24.6674 20.8906C24.2577 21.198 24.1583 21.2738 23.8539 21.5996C23.6788 21.787 23.391 22.0303 23.0902 22.2158C22.9394 22.3088 22.9134 22.2668 23.0033 22.1524C23.1353 21.9847 23.2978 21.8645 23.3197 21.7627C23.3635 21.5596 23.3877 21.4749 23.6811 21.2979C23.9746 21.1206 23.9072 20.9679 24.0541 20.8565C24.2012 20.7451 24.2995 20.7799 24.8695 20.1543C25.4398 19.5285 25.7766 19.1934 26.0033 18.96C26.2301 18.7265 26.8293 18.2803 27.1977 17.8994C27.5661 17.5185 28.408 16.7757 28.684 16.4551C28.9599 16.1345 29.0739 16.1715 29.4018 15.9473C29.7294 15.7231 29.6597 15.4371 30.0219 15.1514C30.384 14.8658 30.58 14.87 30.9164 14.5166C31.2528 14.1633 31.7236 13.8543 31.8275 13.6817C31.9314 13.5091 32.1327 13.554 32.3256 13.3242C32.5185 13.0943 32.6846 12.9711 32.9486 12.8018C33.2128 12.6323 33.8907 12.0682 34.0463 11.832C34.2014 11.5962 34.5899 11.3967 34.7768 11.2617C34.8346 11.22 34.8864 11.1888 34.9291 11.166C34.9469 11.1567 34.9644 11.1554 34.976 11.1592Z" fill="#EBE2B9"/>
<path d="M27.974 15.6094C27.9883 15.6144 27.9998 15.6224 27.9955 15.6289C27.972 15.6608 27.9464 15.7122 27.9418 15.7813C27.9333 15.9099 27.8127 15.8831 27.7191 16.0283C27.6255 16.174 27.6396 16.287 27.4047 16.4151C27.1712 16.543 27.4039 16.6723 27.0102 16.8311C26.6164 16.99 26.8772 17.1119 26.6771 17.3369C26.4766 17.5621 26.0169 17.7749 25.8861 17.9072C25.7555 18.0395 25.5952 18.2227 25.3539 18.3906C25.1126 18.5587 24.9563 18.8156 24.6645 18.9922C24.3724 19.1687 23.9691 19.4222 23.765 19.5332C23.5612 19.644 23.5113 19.6718 23.4047 19.8096C23.3433 19.8886 23.2129 19.9816 23.0453 20.0401C22.961 20.0693 22.9199 20.0421 22.9428 19.9912C22.9767 19.9165 23.0576 19.8737 23.0297 19.8194C22.9731 19.7106 22.9547 19.6653 23.1205 19.6104C23.2863 19.5555 23.1599 19.4585 23.2318 19.418C23.3045 19.3776 23.4045 19.4132 23.5971 19.1465C23.7896 18.8797 23.9187 18.7409 24.0023 18.6436C24.0864 18.5462 24.3868 18.3864 24.5219 18.2276C24.6573 18.0685 25.0236 17.7779 25.1088 17.6387C25.1938 17.4994 25.3067 17.5372 25.4799 17.461C25.6524 17.3846 25.4631 17.2114 25.6361 17.1055C25.8097 16.9999 25.9772 17.0329 26.098 16.8848C26.2187 16.7367 26.4727 16.6346 26.4818 16.5528C26.4899 16.4708 26.6809 16.5273 26.7377 16.4268C26.7945 16.3261 26.8773 16.2816 27.0219 16.2266C27.1666 16.1713 27.4781 15.9566 27.5004 15.8467C27.5227 15.737 27.7574 15.6842 27.8529 15.6367C27.8825 15.622 27.9123 15.6118 27.9379 15.6055C27.9486 15.6031 27.9626 15.6055 27.974 15.6094Z" fill="#EBE2B9"/>
</svg>
