<svg width="25" height="19" viewBox="0 0 25 19" fill="none" xmlns="http://www.w3.org/2000/svg">
<path d="M19.9492 0.515625L21 1.33301V3H22.875L25 5.83301V17.3232L22.9639 19H2.5L0.689453 18.6377L0 14.5V6.5L0.810547 4.06934L2.64258 3H5V1.5L6.5 0H16.167L19.9492 0.515625Z" fill="black"/>
<path d="M25 4.78613L23.4375 3H25V4.78613Z" fill="black"/>
<circle cx="12.5" cy="10.5" r="6" fill="black" stroke="#EBE2B9"/>
<circle cx="3.375" cy="6.375" r="1.625" fill="black" stroke="#EBE2B9" stroke-width="0.5"/>
<path d="M11.5186 5.78198C11.5704 5.79067 11.6442 5.79848 11.7383 5.79761C11.9138 5.79704 11.9125 5.85632 12.1353 5.90405C12.3546 5.95239 12.5025 5.94998 12.7369 6.08227C12.9668 6.21577 13.0847 6.10663 13.3897 6.34302C13.69 6.58368 13.7937 6.46655 14.1334 6.6394C14.4738 6.81358 14.819 7.16167 14.9996 7.30005C15.0388 7.32931 15.0809 7.36109 15.125 7.39526C15.289 7.52196 15.4767 7.68714 15.6377 7.88892C15.8428 8.14293 16.1265 8.43867 16.2837 8.76489C16.4453 9.08799 16.6218 9.55958 16.6797 9.7854C16.7386 10.0092 16.7513 10.0632 16.8404 10.2664C16.891 10.3836 16.9334 10.5567 16.9302 10.7083C16.9282 10.7857 16.8978 10.7731 16.8682 10.7068C16.8233 10.6059 16.8098 10.5178 16.7613 10.4753C16.6639 10.3904 16.6253 10.3553 16.6167 10.2117C16.6073 10.0676 16.4987 10.038 16.4791 9.96069C16.4567 9.88282 16.5139 9.8592 16.3018 9.5061C16.0849 9.15731 15.9549 8.97663 15.8648 8.85327C15.7753 8.73044 15.6272 8.44093 15.4512 8.26294C15.3128 8.11683 15.0599 7.849 14.8663 7.7063C14.8205 7.67156 14.779 7.64254 14.7452 7.62231C14.5675 7.51781 14.6027 7.47118 14.4864 7.34643C14.3675 7.22195 14.1778 7.27116 14.0176 7.1477C13.8557 7.02496 13.8677 6.94167 13.6539 6.8435C13.4405 6.74671 13.2518 6.59621 13.1436 6.58081C13.0353 6.56532 13.066 6.47193 12.9214 6.43091C12.7754 6.39016 12.6983 6.34437 12.5879 6.26587C12.4789 6.18611 12.1097 6.02125 11.9571 6.01343C11.8064 6.00392 11.6661 5.89172 11.5743 5.84985C11.544 5.83628 11.5247 5.82379 11.5064 5.81177C11.5021 5.8075 11.4968 5.79964 11.5 5.79419C11.5001 5.78634 11.5098 5.78071 11.5186 5.78198Z" fill="#EBE2B9"/>
<path d="M13.8394 5.66577C13.8687 5.67629 13.9137 5.68686 13.9727 5.68823C14.0843 5.69146 14.066 5.74655 14.1944 5.79028C14.3223 5.83419 14.4198 5.83012 14.5362 5.94214C14.6515 6.05427 14.7608 5.95124 14.9029 6.14233C15.0427 6.33422 15.1467 6.22195 15.3423 6.33862C15.5383 6.45552 15.7098 6.70553 15.814 6.79663C15.8373 6.81641 15.863 6.83818 15.8887 6.86108C15.9828 6.94474 16.0868 7.05156 16.17 7.17993C16.2763 7.34332 16.4562 7.50716 16.544 7.70337C16.6325 7.89871 16.7482 8.17388 16.7911 8.30737C16.8336 8.43978 16.8447 8.47255 16.9244 8.5769C16.9701 8.63729 17.0108 8.73266 17.0176 8.82934C17.0199 8.87598 16.9919 8.88159 16.9595 8.8479C16.9131 8.80067 16.899 8.74828 16.8531 8.73511C16.7612 8.70915 16.7258 8.69934 16.7193 8.60718C16.7125 8.51477 16.615 8.52605 16.5997 8.47925C16.584 8.43246 16.6315 8.40491 16.4688 8.21655C16.3051 8.02923 16.2213 7.92485 16.1617 7.85425C16.1024 7.78371 16.0294 7.60081 15.9249 7.4939C15.8419 7.40746 15.7076 7.23595 15.6021 7.1477C15.5772 7.12649 15.553 7.10817 15.5328 7.09643C15.4281 7.03681 15.4666 6.99275 15.4136 6.90405C15.3586 6.81511 15.2063 6.88146 15.1246 6.7937C15.0416 6.7058 15.0721 6.63157 14.9483 6.56567C14.8245 6.50033 14.737 6.37867 14.667 6.37134C14.5981 6.36425 14.6443 6.27927 14.5586 6.24975C14.4718 6.22017 14.4334 6.18147 14.3829 6.11352C14.3332 6.04565 14.14 5.89927 14.0455 5.88989C13.9501 5.87943 13.8985 5.774 13.8521 5.73022C13.8396 5.71774 13.8294 5.70443 13.8223 5.69263C13.8203 5.68818 13.8202 5.68102 13.8238 5.67602C13.8261 5.66856 13.8349 5.66446 13.8394 5.66577Z" fill="#EBE2B9"/>
</svg>
