<svg width="996" height="773" viewBox="0 0 996 773" fill="none" xmlns="http://www.w3.org/2000/svg">
<mask id="path-1-inside-1_130_6" fill="white">
<path d="M923.965 559.5C923.965 446.385 879.083 337.903 799.192 257.919C719.302 177.935 610.947 133 497.965 133C384.983 133 276.628 177.935 196.737 257.919C116.847 337.903 71.9649 446.385 71.9649 559.5L497.965 559.5H923.965Z"/>
</mask>
<path d="M923.965 559.5C923.965 446.385 879.083 337.903 799.192 257.919C719.302 177.935 610.947 133 497.965 133C384.983 133 276.628 177.935 196.737 257.919C116.847 337.903 71.9649 446.385 71.9649 559.5L497.965 559.5H923.965Z" fill="#EBE2B9" stroke="black" stroke-width="32" mask="url(#path-1-inside-1_130_6)"/>
<path d="M494.965 5C525.341 5 549.965 29.6243 549.965 60V168.256C556.409 145.04 577.697 128 602.965 128C633.341 128 657.965 152.624 657.965 183V358C657.965 415.99 610.955 463 552.965 463H549.965V565H439.965V463H436.965C378.975 463 331.965 415.99 331.965 358V254C331.965 223.624 356.589 199 386.965 199C412.233 199 433.52 216.04 439.965 239.256V60C439.965 29.6243 464.589 5 494.965 5Z" fill="black" stroke="black" stroke-width="10"/>
<mask id="path-3-inside-2_130_6" fill="white">
<path d="M494.965 10C522.579 10 544.965 32.3858 544.965 60V358H552.965V183C552.965 155.386 575.351 133 602.965 133C630.579 133 652.965 155.386 652.965 183V358C652.965 413.228 608.193 458 552.965 458H544.965V560H444.965V458H436.965C381.736 458 336.965 413.228 336.965 358V254C336.965 226.386 359.351 204 386.965 204C414.579 204 436.965 226.386 436.965 254V358H444.965V60C444.965 32.3858 467.351 10 494.965 10Z"/>
</mask>
<path d="M494.965 10C522.579 10 544.965 32.3858 544.965 60V358H552.965V183C552.965 155.386 575.351 133 602.965 133C630.579 133 652.965 155.386 652.965 183V358C652.965 413.228 608.193 458 552.965 458H544.965V560H444.965V458H436.965C381.736 458 336.965 413.228 336.965 358V254C336.965 226.386 359.351 204 386.965 204C414.579 204 436.965 226.386 436.965 254V358H444.965V60C444.965 32.3858 467.351 10 494.965 10Z" fill="black"/>
<path d="M544.965 358H538.965V364H544.965V358ZM552.965 358V364H558.965V358H552.965ZM544.965 458V452H538.965V458H544.965ZM544.965 560V566H550.965V560H544.965ZM444.965 560H438.965V566H444.965V560ZM444.965 458H450.965V452H444.965V458ZM436.965 458V464V464V458ZM436.965 358H430.965V364H436.965V358ZM444.965 358V364H450.965V358H444.965ZM494.965 10V16C519.265 16 538.965 35.6995 538.965 60H544.965H550.965C550.965 29.0721 525.893 4 494.965 4V10ZM544.965 60H538.965V358H544.965H550.965V60H544.965ZM544.965 358V364H552.965V358V352H544.965V358ZM552.965 358H558.965V183H552.965H546.965V358H552.965ZM552.965 183H558.965C558.965 158.699 578.664 139 602.965 139V133V127C572.037 127 546.965 152.072 546.965 183H552.965ZM602.965 133V139C627.265 139 646.965 158.699 646.965 183H652.965H658.965C658.965 152.072 633.893 127 602.965 127V133ZM652.965 183H646.965V358H652.965H658.965V183H652.965ZM652.965 358H646.965C646.965 409.915 604.88 452 552.965 452V458V464C611.507 464 658.965 416.542 658.965 358H652.965ZM552.965 458V452H544.965V458V464H552.965V458ZM544.965 458H538.965V560H544.965H550.965V458H544.965ZM544.965 560V554H444.965V560V566H544.965V560ZM444.965 560H450.965V458H444.965H438.965V560H444.965ZM444.965 458V452H436.965V458V464H444.965V458ZM436.965 458V452C385.05 452 342.965 409.915 342.965 358H336.965H330.965C330.965 416.542 378.423 464 436.965 464V458ZM336.965 358H342.965V254H336.965H330.965V358H336.965ZM336.965 254H342.965C342.965 229.699 362.664 210 386.965 210V204V198C356.037 198 330.965 223.072 330.965 254H336.965ZM386.965 204V210C411.265 210 430.965 229.699 430.965 254H436.965H442.965C442.965 223.072 417.893 198 386.965 198V204ZM436.965 254H430.965V358H436.965H442.965V254H436.965ZM436.965 358V364H444.965V358V352H436.965V358ZM444.965 358H450.965V60H444.965H438.965V358H444.965ZM444.965 60H450.965C450.965 35.6995 470.664 16 494.965 16V10V4C464.037 4 438.965 29.0721 438.965 60H444.965Z" fill="#EBE2B9" mask="url(#path-3-inside-2_130_6)"/>
<path d="M417.965 308C418.298 309 418.615 310 418.915 311C421.615 320 422.965 329 422.965 338C422.965 347 421.615 356 418.915 365C418.615 366 418.298 367 417.965 368C417.632 367 417.315 366 417.015 365C414.315 356 412.965 347 412.965 338C412.965 329 414.315 320 417.015 311C417.315 310 417.632 309 417.965 308Z" fill="#EBE2B9"/>
<path d="M588.965 303C589.298 304.05 589.615 305.1 589.915 306.15C592.615 315.6 593.965 325.05 593.965 334.5C593.965 343.95 592.615 353.4 589.915 362.85C589.615 363.9 589.298 364.95 588.965 366C588.632 364.95 588.315 363.9 588.015 362.85C585.315 353.4 583.965 343.95 583.965 334.5C583.965 325.05 585.315 315.6 588.015 306.15C588.315 305.1 588.632 304.05 588.965 303Z" fill="#EBE2B9"/>
<path d="M572.965 264C573.298 265.05 573.615 266.1 573.915 267.15C576.615 276.6 577.965 286.05 577.965 295.5C577.965 304.95 576.615 314.4 573.915 323.85C573.615 324.9 573.298 325.95 572.965 327C572.632 325.95 572.315 324.9 572.015 323.85C569.315 314.4 567.965 304.95 567.965 295.5C567.965 286.05 569.315 276.6 572.015 267.15C572.315 266.1 572.632 265.05 572.965 264Z" fill="#EBE2B9"/>
<path d="M459.965 256C460.298 257.05 460.615 258.1 460.915 259.15C463.615 268.6 464.965 278.05 464.965 287.5C464.965 296.95 463.615 306.4 460.915 315.85C460.615 316.9 460.298 317.95 459.965 319C459.632 317.95 459.315 316.9 459.015 315.85C456.315 306.4 454.965 296.95 454.965 287.5C454.965 278.05 456.315 268.6 459.015 259.15C459.315 258.1 459.632 257.05 459.965 256Z" fill="#EBE2B9"/>
<path d="M359.965 233C360.298 234 360.615 235 360.915 236C363.615 245 364.965 254 364.965 263C364.965 272 363.615 281 360.915 290C360.615 291 360.298 292 359.965 293C359.632 292 359.315 291 359.015 290C356.315 281 354.965 272 354.965 263C354.965 254 356.315 245 359.015 236C359.315 235 359.632 234 359.965 233Z" fill="#EBE2B9"/>
<path d="M526.965 202C527.298 203.05 527.615 204.1 527.915 205.15C530.615 214.6 531.965 224.05 531.965 233.5C531.965 242.95 530.615 252.4 527.915 261.85C527.615 262.9 527.298 263.95 526.965 265C526.632 263.95 526.315 262.9 526.015 261.85C523.315 252.4 521.965 242.95 521.965 233.5C521.965 224.05 523.315 214.6 526.015 205.15C526.315 204.1 526.632 203.05 526.965 202Z" fill="#EBE2B9"/>
<path d="M632.965 170C633.298 171 633.615 172 633.915 173C636.615 182 637.965 191 637.965 200C637.965 209 636.615 218 633.915 227C633.615 228 633.298 229 632.965 230C632.632 229 632.315 228 632.015 227C629.315 218 627.965 209 627.965 200C627.965 191 629.315 182 632.015 173C632.315 172 632.632 171 632.965 170Z" fill="#EBE2B9"/>
<path d="M526.965 113C527.298 114 527.615 115 527.915 116C530.615 125 531.965 134 531.965 143C531.965 152 530.615 161 527.915 170C527.615 171 527.298 172 526.965 173C526.632 172 526.315 171 526.015 170C523.315 161 521.965 152 521.965 143C521.965 134 523.315 125 526.015 116C526.315 115 526.632 114 526.965 113Z" fill="#EBE2B9"/>
<path d="M512.965 77C513.298 78.05 513.615 79.1004 513.915 80.1504C516.615 89.6003 517.965 99.0501 517.965 108.5C517.965 117.95 516.615 127.4 513.915 136.85C513.615 137.9 513.298 138.95 512.965 140C512.632 138.95 512.315 137.9 512.015 136.85C509.315 127.4 507.965 117.95 507.965 108.5C507.965 99.0501 509.315 89.6003 512.015 80.1504C512.315 79.1004 512.632 78.05 512.965 77Z" fill="#EBE2B9"/>
<path d="M526.965 41C527.298 42 527.615 43 527.915 44C530.615 53 531.965 62 531.965 71C531.965 80 530.615 89 527.915 98C527.615 99 527.298 100 526.965 101C526.632 100 526.315 99 526.015 98C523.315 89 521.965 80 521.965 71C521.965 62 523.315 53 526.015 44C526.315 43 526.632 42 526.965 41Z" fill="#EBE2B9"/>
<mask id="path-6-outside-3_130_6" maskUnits="userSpaceOnUse" x="-0.0350952" y="507" width="996" height="190" fill="black">
<rect fill="white" x="-0.0350952" y="507" width="996" height="190"/>
<path d="M80.8001 667.6L49.2001 592.8L44.2001 668.8H32.6001L20.0001 537H53.0001L88.4001 620.8L103.8 539.4L135.2 537L146.8 663.8H131.2L117 580L101 665L80.8001 667.6ZM248.428 540.6L254.628 665.8L243.628 668.4L230.228 628.4L193.828 632L185.428 665.8L177.028 664.8L168.628 537L248.428 540.6ZM193.828 607.6L226.628 609L215.628 563.4L203.228 564.6L193.828 607.6ZM354.631 667.2L305.831 593L300.631 668.4H289.231L276.631 537.2H309.431L351.031 621.6L357.031 542.4L368.631 541L376.231 665.8L354.631 667.2ZM399.316 527.2L493.916 574.6L488.916 634.2L405.316 676.8L399.316 527.2ZM420.516 561.6L428.916 643.6L467.316 617.4L469.516 588.4L420.516 561.6ZM590.225 540.6L596.425 665.8L585.425 668.4L572.025 628.4L535.625 632L527.225 665.8L518.825 664.8L510.425 537L590.225 540.6ZM535.625 607.6L568.425 609L557.425 563.4L545.025 564.6L535.625 607.6ZM681.859 545L679.059 562.4L624.059 565.4L632.259 643.2L679.859 642.4V658.6L613.859 668.4L599.259 537L681.859 545ZM768.936 540.6L775.136 665.8L764.136 668.4L750.736 628.4L714.336 632L705.936 665.8L697.536 664.8L689.136 537L768.936 540.6ZM714.336 607.6L747.136 609L736.136 563.4L723.736 564.6L714.336 607.6ZM884.941 542L857.541 612.4L877.541 663.4L870.141 667L821.341 625L809.741 665.2L795.741 664.4L789.741 537L884.941 542ZM836.541 596.8L853.541 561.2L812.741 564.8L818.741 597.8L836.541 596.8ZM968.466 537.8L975.666 668.2L898.066 664.6L893.066 537.2L908.666 537L922.466 636.8L946.266 641L949.866 537.8H968.466Z"/>
</mask>
<path d="M80.8001 667.6L49.2001 592.8L44.2001 668.8H32.6001L20.0001 537H53.0001L88.4001 620.8L103.8 539.4L135.2 537L146.8 663.8H131.2L117 580L101 665L80.8001 667.6ZM248.428 540.6L254.628 665.8L243.628 668.4L230.228 628.4L193.828 632L185.428 665.8L177.028 664.8L168.628 537L248.428 540.6ZM193.828 607.6L226.628 609L215.628 563.4L203.228 564.6L193.828 607.6ZM354.631 667.2L305.831 593L300.631 668.4H289.231L276.631 537.2H309.431L351.031 621.6L357.031 542.4L368.631 541L376.231 665.8L354.631 667.2ZM399.316 527.2L493.916 574.6L488.916 634.2L405.316 676.8L399.316 527.2ZM420.516 561.6L428.916 643.6L467.316 617.4L469.516 588.4L420.516 561.6ZM590.225 540.6L596.425 665.8L585.425 668.4L572.025 628.4L535.625 632L527.225 665.8L518.825 664.8L510.425 537L590.225 540.6ZM535.625 607.6L568.425 609L557.425 563.4L545.025 564.6L535.625 607.6ZM681.859 545L679.059 562.4L624.059 565.4L632.259 643.2L679.859 642.4V658.6L613.859 668.4L599.259 537L681.859 545ZM768.936 540.6L775.136 665.8L764.136 668.4L750.736 628.4L714.336 632L705.936 665.8L697.536 664.8L689.136 537L768.936 540.6ZM714.336 607.6L747.136 609L736.136 563.4L723.736 564.6L714.336 607.6ZM884.941 542L857.541 612.4L877.541 663.4L870.141 667L821.341 625L809.741 665.2L795.741 664.4L789.741 537L884.941 542ZM836.541 596.8L853.541 561.2L812.741 564.8L818.741 597.8L836.541 596.8ZM968.466 537.8L975.666 668.2L898.066 664.6L893.066 537.2L908.666 537L922.466 636.8L946.266 641L949.866 537.8H968.466Z" fill="black"/>
<path d="M80.8001 667.6L62.3766 675.383C65.8707 683.654 74.4482 688.583 83.3533 687.436L80.8001 667.6ZM49.2001 592.8L67.6235 585.017C64.0164 576.479 55.0153 571.537 45.8753 573.078C36.7354 574.619 29.8517 582.238 29.2432 591.487L49.2001 592.8ZM44.2001 668.8V688.8C54.7361 688.8 63.4653 680.626 64.1569 670.113L44.2001 668.8ZM32.6001 668.8L12.6908 670.703C13.6718 680.965 22.2916 688.8 32.6001 688.8V668.8ZM20.0001 537V517C14.3647 517 8.99078 519.377 5.20029 523.548C1.40981 527.718 -0.445463 533.293 0.0908327 538.903L20.0001 537ZM53.0001 537L71.4237 529.217C68.2956 521.812 61.0384 517 53.0001 517V537ZM88.4001 620.8L69.9765 628.583C73.408 636.706 81.7548 641.623 90.5232 640.687C99.2916 639.751 106.412 633.182 108.051 624.518L88.4001 620.8ZM103.8 539.4L102.276 519.458C93.2609 520.147 85.8294 526.799 84.1487 535.682L103.8 539.4ZM135.2 537L155.117 535.178C154.121 524.294 144.573 516.225 133.676 517.058L135.2 537ZM146.8 663.8V683.8C152.421 683.8 157.783 681.434 161.572 677.283C165.362 673.131 167.229 667.576 166.717 661.978L146.8 663.8ZM131.2 663.8L111.481 667.141C113.111 676.761 121.444 683.8 131.2 683.8V663.8ZM117 580L136.719 576.659C135.1 567.107 126.869 560.089 117.182 560.001C107.495 559.913 99.1373 566.78 97.3452 576.3L117 580ZM101 665L103.553 684.836C112.148 683.73 119.052 677.215 120.655 668.7L101 665ZM80.8001 667.6L99.2235 659.817L67.6235 585.017L49.2001 592.8L30.7766 600.583L62.3766 675.383L80.8001 667.6ZM49.2001 592.8L29.2432 591.487L24.2432 667.487L44.2001 668.8L64.1569 670.113L69.1569 594.113L49.2001 592.8ZM44.2001 668.8V648.8H32.6001V668.8V688.8H44.2001V668.8ZM32.6001 668.8L52.5093 666.897L39.9093 535.097L20.0001 537L0.0908327 538.903L12.6908 670.703L32.6001 668.8ZM20.0001 537V557H53.0001V537V517H20.0001V537ZM53.0001 537L34.5765 544.783L69.9765 628.583L88.4001 620.8L106.824 613.017L71.4237 529.217L53.0001 537ZM88.4001 620.8L108.051 624.518L123.451 543.118L103.8 539.4L84.1487 535.682L68.7487 617.082L88.4001 620.8ZM103.8 539.4L105.324 559.342L136.724 556.942L135.2 537L133.676 517.058L102.276 519.458L103.8 539.4ZM135.2 537L115.283 538.822L126.883 665.622L146.8 663.8L166.717 661.978L155.117 535.178L135.2 537ZM146.8 663.8V643.8H131.2V663.8V683.8H146.8V663.8ZM131.2 663.8L150.919 660.459L136.719 576.659L117 580L97.2812 583.341L111.481 667.141L131.2 663.8ZM117 580L97.3452 576.3L81.3452 661.3L101 665L120.655 668.7L136.655 583.7L117 580ZM101 665L98.4469 645.164L78.2469 647.764L80.8001 667.6L83.3533 687.436L103.553 684.836L101 665ZM248.428 540.6L268.404 539.611C267.894 529.309 259.633 521.085 249.33 520.62L248.428 540.6ZM254.628 665.8L259.229 685.264C268.615 683.045 275.081 674.444 274.604 664.811L254.628 665.8ZM243.628 668.4L224.664 674.753C227.949 684.558 238.166 690.242 248.229 687.864L243.628 668.4ZM230.228 628.4L249.192 622.047C246.229 613.201 237.544 607.579 228.26 608.497L230.228 628.4ZM193.828 632L191.86 612.097C183.442 612.93 176.459 618.967 174.419 627.176L193.828 632ZM185.428 665.8L183.064 685.66C193.074 686.851 202.406 680.407 204.838 670.624L185.428 665.8ZM177.028 664.8L157.071 666.112C157.703 675.725 165.098 683.521 174.664 684.66L177.028 664.8ZM168.628 537L169.53 517.02C163.846 516.764 158.323 518.94 154.341 523.004C150.36 527.068 148.298 532.635 148.671 538.312L168.628 537ZM193.828 607.6L174.29 603.329C173.029 609.098 174.381 615.129 177.985 619.806C181.589 624.484 187.076 627.33 192.975 627.582L193.828 607.6ZM226.628 609L225.775 628.982C232.049 629.25 238.085 626.555 242.074 621.706C246.063 616.856 247.543 610.414 246.07 604.31L226.628 609ZM215.628 563.4L235.07 558.71C232.734 549.022 223.621 542.533 213.702 543.493L215.628 563.4ZM203.228 564.6L201.302 544.693C192.659 545.529 185.544 551.846 183.69 560.329L203.228 564.6ZM248.428 540.6L228.453 541.589L234.653 666.789L254.628 665.8L274.604 664.811L268.404 539.611L248.428 540.6ZM254.628 665.8L250.028 646.336L239.028 648.936L243.628 668.4L248.229 687.864L259.229 685.264L254.628 665.8ZM243.628 668.4L262.592 662.047L249.192 622.047L230.228 628.4L211.264 634.753L224.664 674.753L243.628 668.4ZM230.228 628.4L228.26 608.497L191.86 612.097L193.828 632L195.797 651.903L232.197 648.303L230.228 628.4ZM193.828 632L174.419 627.176L166.019 660.976L185.428 665.8L204.838 670.624L213.238 636.824L193.828 632ZM185.428 665.8L187.792 645.94L179.392 644.94L177.028 664.8L174.664 684.66L183.064 685.66L185.428 665.8ZM177.028 664.8L196.985 663.488L188.585 535.688L168.628 537L148.671 538.312L157.071 666.112L177.028 664.8ZM168.628 537L167.727 556.98L247.527 560.58L248.428 540.6L249.33 520.62L169.53 517.02L168.628 537ZM193.828 607.6L192.975 627.582L225.775 628.982L226.628 609L227.481 589.018L194.681 587.618L193.828 607.6ZM226.628 609L246.07 604.31L235.07 558.71L215.628 563.4L196.186 568.09L207.186 613.69L226.628 609ZM215.628 563.4L213.702 543.493L201.302 544.693L203.228 564.6L205.155 584.507L217.555 583.307L215.628 563.4ZM203.228 564.6L183.69 560.329L174.29 603.329L193.828 607.6L213.367 611.871L222.767 568.871L203.228 564.6ZM354.631 667.2L337.921 678.19C341.873 684.199 348.748 687.623 355.925 687.158L354.631 667.2ZM305.831 593L322.541 582.01C317.825 574.84 309.06 571.477 300.758 573.654C292.457 575.831 286.469 583.062 285.879 591.624L305.831 593ZM300.631 668.4V688.4C311.143 688.4 319.861 680.263 320.584 669.776L300.631 668.4ZM289.231 668.4L269.323 670.312C270.308 680.57 278.926 688.4 289.231 688.4V668.4ZM276.631 537.2V517.2C270.994 517.2 265.619 519.579 261.829 523.751C258.038 527.923 256.184 533.501 256.723 539.112L276.631 537.2ZM309.431 537.2L327.371 528.358C324.003 521.526 317.048 517.2 309.431 517.2V537.2ZM351.031 621.6L333.092 630.442C337.078 638.528 345.98 642.949 354.831 641.236C363.682 639.523 370.293 632.1 370.974 623.111L351.031 621.6ZM357.031 542.4L354.635 522.544C345.157 523.688 337.81 531.37 337.088 540.889L357.031 542.4ZM368.631 541L388.594 539.784C388.259 534.284 385.67 529.166 381.438 525.638C377.206 522.11 371.705 520.484 366.235 521.144L368.631 541ZM376.231 665.8L377.525 685.758C388.517 685.046 396.864 675.579 396.194 664.584L376.231 665.8ZM354.631 667.2L371.341 656.21L322.541 582.01L305.831 593L289.121 603.99L337.921 678.19L354.631 667.2ZM305.831 593L285.879 591.624L280.679 667.024L300.631 668.4L320.584 669.776L325.784 594.376L305.831 593ZM300.631 668.4V648.4H289.231V668.4V688.4H300.631V668.4ZM289.231 668.4L309.14 666.488L296.54 535.288L276.631 537.2L256.723 539.112L269.323 670.312L289.231 668.4ZM276.631 537.2V557.2H309.431V537.2V517.2H276.631V537.2ZM309.431 537.2L291.492 546.042L333.092 630.442L351.031 621.6L368.971 612.758L327.371 528.358L309.431 537.2ZM351.031 621.6L370.974 623.111L376.974 543.911L357.031 542.4L337.088 540.889L331.088 620.089L351.031 621.6ZM357.031 542.4L359.428 562.256L371.028 560.856L368.631 541L366.235 521.144L354.635 522.544L357.031 542.4ZM368.631 541L348.668 542.216L356.268 667.016L376.231 665.8L396.194 664.584L388.594 539.784L368.631 541ZM376.231 665.8L374.938 645.842L353.338 647.242L354.631 667.2L355.925 687.158L377.525 685.758L376.231 665.8ZM399.316 527.2L408.275 509.319C401.948 506.149 394.416 506.558 388.469 510.397C382.523 514.235 379.048 520.93 379.332 528.001L399.316 527.2ZM493.916 574.6L513.846 576.272C514.529 568.125 510.185 560.382 502.875 556.719L493.916 574.6ZM488.916 634.2L497.996 652.02C504.163 648.877 508.267 642.769 508.846 635.872L488.916 634.2ZM405.316 676.8L385.332 677.602C385.605 684.412 389.328 690.615 395.21 694.059C401.092 697.503 408.323 697.714 414.396 694.62L405.316 676.8ZM420.516 561.6L430.113 544.053C423.596 540.489 415.64 540.83 409.452 544.939C403.264 549.048 399.863 556.249 400.62 563.638L420.516 561.6ZM428.916 643.6L409.02 645.638C409.738 652.651 414.095 658.767 420.488 661.738C426.88 664.708 434.365 664.094 440.188 660.121L428.916 643.6ZM467.316 617.4L478.588 633.921C483.608 630.496 486.799 624.973 487.258 618.913L467.316 617.4ZM469.516 588.4L489.458 589.913C490.053 582.079 486.006 574.623 479.113 570.853L469.516 588.4ZM399.316 527.2L390.356 545.081L484.956 592.481L493.916 574.6L502.875 556.719L408.275 509.319L399.316 527.2ZM493.916 574.6L473.986 572.928L468.986 632.528L488.916 634.2L508.846 635.872L513.846 576.272L493.916 574.6ZM488.916 634.2L479.835 616.38L396.235 658.98L405.316 676.8L414.396 694.62L497.996 652.02L488.916 634.2ZM405.316 676.8L425.3 675.999L419.3 526.398L399.316 527.2L379.332 528.001L385.332 677.602L405.316 676.8ZM420.516 561.6L400.62 563.638L409.02 645.638L428.916 643.6L448.812 641.562L440.412 559.562L420.516 561.6ZM428.916 643.6L440.188 660.121L478.588 633.921L467.316 617.4L456.044 600.879L417.644 627.079L428.916 643.6ZM467.316 617.4L487.258 618.913L489.458 589.913L469.516 588.4L449.573 586.887L447.373 615.887L467.316 617.4ZM469.516 588.4L479.113 570.853L430.113 544.053L420.516 561.6L410.919 579.147L459.919 605.947L469.516 588.4ZM590.225 540.6L610.201 539.611C609.69 529.309 601.43 521.085 591.126 520.62L590.225 540.6ZM596.425 665.8L601.026 685.264C610.412 683.045 616.878 674.444 616.401 664.811L596.425 665.8ZM585.425 668.4L566.461 674.753C569.745 684.558 579.963 690.242 590.026 687.864L585.425 668.4ZM572.025 628.4L590.989 622.047C588.026 613.201 579.34 607.579 570.057 608.497L572.025 628.4ZM535.625 632L533.657 612.097C525.239 612.93 518.256 618.967 516.215 627.176L535.625 632ZM527.225 665.8L524.861 685.66C534.871 686.851 544.203 680.407 546.635 670.624L527.225 665.8ZM518.825 664.8L498.868 666.112C499.5 675.725 506.895 683.521 516.461 684.66L518.825 664.8ZM510.425 537L511.326 517.02C505.643 516.764 500.12 518.94 496.138 523.004C492.157 527.068 490.095 532.635 490.468 538.312L510.425 537ZM535.625 607.6L516.086 603.329C514.825 609.098 516.178 615.129 519.782 619.806C523.386 624.484 528.873 627.33 534.772 627.582L535.625 607.6ZM568.425 609L567.572 628.982C573.846 629.25 579.881 626.555 583.871 621.706C587.86 616.856 589.34 610.414 587.867 604.31L568.425 609ZM557.425 563.4L576.867 558.71C574.53 549.022 565.418 542.533 555.499 543.493L557.425 563.4ZM545.025 564.6L543.099 544.693C534.456 545.529 527.341 551.846 525.486 560.329L545.025 564.6ZM590.225 540.6L570.25 541.589L576.45 666.789L596.425 665.8L616.401 664.811L610.201 539.611L590.225 540.6ZM596.425 665.8L591.825 646.336L580.825 648.936L585.425 668.4L590.026 687.864L601.026 685.264L596.425 665.8ZM585.425 668.4L604.389 662.047L590.989 622.047L572.025 628.4L553.061 634.753L566.461 674.753L585.425 668.4ZM572.025 628.4L570.057 608.497L533.657 612.097L535.625 632L537.594 651.903L573.993 648.303L572.025 628.4ZM535.625 632L516.215 627.176L507.815 660.976L527.225 665.8L546.635 670.624L555.035 636.824L535.625 632ZM527.225 665.8L529.589 645.94L521.189 644.94L518.825 664.8L516.461 684.66L524.861 685.66L527.225 665.8ZM518.825 664.8L538.782 663.488L530.382 535.688L510.425 537L490.468 538.312L498.868 666.112L518.825 664.8ZM510.425 537L509.524 556.98L589.324 560.58L590.225 540.6L591.126 520.62L511.326 517.02L510.425 537ZM535.625 607.6L534.772 627.582L567.572 628.982L568.425 609L569.278 589.018L536.478 587.618L535.625 607.6ZM568.425 609L587.867 604.31L576.867 558.71L557.425 563.4L537.983 568.09L548.983 613.69L568.425 609ZM557.425 563.4L555.499 543.493L543.099 544.693L545.025 564.6L546.952 584.507L559.352 583.307L557.425 563.4ZM545.025 564.6L525.486 560.329L516.086 603.329L535.625 607.6L555.164 611.871L564.564 568.871L545.025 564.6ZM681.859 545L701.605 548.178C702.483 542.725 701.066 537.152 697.692 532.78C694.317 528.408 689.285 525.626 683.787 525.093L681.859 545ZM679.059 562.4L680.149 582.37C689.543 581.858 697.311 574.867 698.805 565.578L679.059 562.4ZM624.059 565.4L622.97 545.43C617.499 545.728 612.389 548.258 608.836 552.429C605.282 556.6 603.595 562.047 604.17 567.496L624.059 565.4ZM632.259 643.2L612.37 645.296C613.456 655.602 622.234 663.371 632.596 663.197L632.259 643.2ZM679.859 642.4H699.859C699.859 637.037 697.706 631.899 693.882 628.14C690.059 624.38 684.885 622.313 679.523 622.403L679.859 642.4ZM679.859 658.6L682.797 678.383C692.601 676.927 699.859 668.511 699.859 658.6H679.859ZM613.859 668.4L593.982 670.609C594.582 676.007 597.351 680.93 601.655 684.244C605.958 687.559 611.424 688.981 616.797 688.183L613.859 668.4ZM599.259 537L601.187 517.093C595.189 516.512 589.249 518.667 585.018 522.958C580.787 527.249 578.716 533.219 579.382 539.209L599.259 537ZM681.859 545L662.113 541.822L659.313 559.222L679.059 562.4L698.805 565.578L701.605 548.178L681.859 545ZM679.059 562.4L677.97 542.43L622.97 545.43L624.059 565.4L625.149 585.37L680.149 582.37L679.059 562.4ZM624.059 565.4L604.17 567.496L612.37 645.296L632.259 643.2L652.149 641.104L643.949 563.304L624.059 565.4ZM632.259 643.2L632.596 663.197L680.196 662.397L679.859 642.4L679.523 622.403L631.923 623.203L632.259 643.2ZM679.859 642.4H659.859V658.6H679.859H699.859V642.4H679.859ZM679.859 658.6L676.922 638.817L610.922 648.617L613.859 668.4L616.797 688.183L682.797 678.383L679.859 658.6ZM613.859 668.4L633.737 666.191L619.137 534.791L599.259 537L579.382 539.209L593.982 670.609L613.859 668.4ZM599.259 537L597.331 556.907L679.931 564.907L681.859 545L683.787 525.093L601.187 517.093L599.259 537ZM768.936 540.6L788.911 539.611C788.401 529.309 780.141 521.085 769.837 520.62L768.936 540.6ZM775.136 665.8L779.737 685.264C789.123 683.045 795.589 674.444 795.112 664.811L775.136 665.8ZM764.136 668.4L745.172 674.753C748.456 684.558 758.673 690.242 768.737 687.864L764.136 668.4ZM750.736 628.4L769.7 622.047C766.737 613.201 758.051 607.579 748.768 608.497L750.736 628.4ZM714.336 632L712.368 612.097C703.95 612.93 696.966 618.967 694.926 627.176L714.336 632ZM705.936 665.8L703.572 685.66C713.582 686.851 722.914 680.407 725.346 670.624L705.936 665.8ZM697.536 664.8L677.579 666.112C678.211 675.725 685.606 683.521 695.172 684.66L697.536 664.8ZM689.136 537L690.037 517.02C684.354 516.764 678.831 518.94 674.849 523.004C670.868 527.068 668.806 532.635 669.179 538.312L689.136 537ZM714.336 607.6L694.797 603.329C693.536 609.098 694.889 615.129 698.493 619.806C702.097 624.484 707.583 627.33 713.483 627.582L714.336 607.6ZM747.136 609L746.283 628.982C752.557 629.25 758.592 626.555 762.582 621.706C766.571 616.856 768.051 610.414 766.578 604.31L747.136 609ZM736.136 563.4L755.578 558.71C753.241 549.022 744.129 542.533 734.21 543.493L736.136 563.4ZM723.736 564.6L721.81 544.693C713.167 545.529 706.052 551.846 704.197 560.329L723.736 564.6ZM768.936 540.6L748.96 541.589L755.16 666.789L775.136 665.8L795.112 664.811L788.911 539.611L768.936 540.6ZM775.136 665.8L770.536 646.336L759.536 648.936L764.136 668.4L768.737 687.864L779.737 685.264L775.136 665.8ZM764.136 668.4L783.1 662.047L769.7 622.047L750.736 628.4L731.772 634.753L745.172 674.753L764.136 668.4ZM750.736 628.4L748.768 608.497L712.368 612.097L714.336 632L716.304 651.903L752.704 648.303L750.736 628.4ZM714.336 632L694.926 627.176L686.526 660.976L705.936 665.8L725.346 670.624L733.746 636.824L714.336 632ZM705.936 665.8L708.3 645.94L699.9 644.94L697.536 664.8L695.172 684.66L703.572 685.66L705.936 665.8ZM697.536 664.8L717.493 663.488L709.093 535.688L689.136 537L669.179 538.312L677.579 666.112L697.536 664.8ZM689.136 537L688.235 556.98L768.035 560.58L768.936 540.6L769.837 520.62L690.037 517.02L689.136 537ZM714.336 607.6L713.483 627.582L746.283 628.982L747.136 609L747.989 589.018L715.189 587.618L714.336 607.6ZM747.136 609L766.578 604.31L755.578 558.71L736.136 563.4L716.694 568.09L727.694 613.69L747.136 609ZM736.136 563.4L734.21 543.493L721.81 544.693L723.736 564.6L725.662 584.507L738.062 583.307L736.136 563.4ZM723.736 564.6L704.197 560.329L694.797 603.329L714.336 607.6L733.875 611.871L743.275 568.871L723.736 564.6ZM884.941 542L903.579 549.254C905.907 543.273 905.223 536.538 901.74 531.147C898.257 525.756 892.399 522.364 885.99 522.028L884.941 542ZM857.541 612.4L838.903 605.146C837.08 609.828 837.087 615.024 838.921 619.702L857.541 612.4ZM877.541 663.4L886.29 681.385C895.672 676.821 899.969 665.811 896.16 656.098L877.541 663.4ZM870.141 667L857.094 682.159C863.144 687.366 871.712 688.477 878.89 684.985L870.141 667ZM821.341 625L834.387 609.841C829.225 605.398 822.156 603.888 815.629 605.833C809.102 607.778 804.013 612.911 802.125 619.455L821.341 625ZM809.741 665.2L808.6 685.167C817.92 685.7 826.369 679.714 828.957 670.745L809.741 665.2ZM795.741 664.4L775.763 665.341C776.245 675.57 784.376 683.783 794.6 684.367L795.741 664.4ZM789.741 537L790.79 517.028C785.147 516.731 779.643 518.835 775.637 522.82C771.631 526.804 769.497 532.297 769.763 537.941L789.741 537ZM836.541 596.8L837.663 616.769C844.954 616.359 851.442 612.008 854.589 605.418L836.541 596.8ZM853.541 561.2L871.589 569.818C874.683 563.338 874.066 555.697 869.972 549.798C865.878 543.898 858.936 540.646 851.783 541.277L853.541 561.2ZM812.741 564.8L810.983 544.877C805.381 545.372 800.247 548.201 796.837 552.673C793.427 557.145 792.057 562.845 793.063 568.378L812.741 564.8ZM818.741 597.8L799.063 601.378C800.868 611.306 809.787 618.335 819.862 617.769L818.741 597.8ZM884.941 542L866.303 534.746L838.903 605.146L857.541 612.4L876.179 619.654L903.579 549.254L884.941 542ZM857.541 612.4L838.921 619.702L858.921 670.702L877.541 663.4L896.16 656.098L876.16 605.098L857.541 612.4ZM877.541 663.4L868.791 645.415L861.391 649.015L870.141 667L878.89 684.985L886.29 681.385L877.541 663.4ZM870.141 667L883.187 651.841L834.387 609.841L821.341 625L808.294 640.159L857.094 682.159L870.141 667ZM821.341 625L802.125 619.455L790.525 659.655L809.741 665.2L828.957 670.745L840.557 630.545L821.341 625ZM809.741 665.2L810.882 645.233L796.882 644.433L795.741 664.4L794.6 684.367L808.6 685.167L809.741 665.2ZM795.741 664.4L815.719 663.459L809.719 536.059L789.741 537L769.763 537.941L775.763 665.341L795.741 664.4ZM789.741 537L788.692 556.972L883.892 561.972L884.941 542L885.99 522.028L790.79 517.028L789.741 537ZM836.541 596.8L854.589 605.418L871.589 569.818L853.541 561.2L835.493 552.582L818.493 588.182L836.541 596.8ZM853.541 561.2L851.783 541.277L810.983 544.877L812.741 564.8L814.499 584.723L855.299 581.123L853.541 561.2ZM812.741 564.8L793.063 568.378L799.063 601.378L818.741 597.8L838.418 594.222L832.418 561.222L812.741 564.8ZM818.741 597.8L819.862 617.769L837.663 616.769L836.541 596.8L835.419 576.831L817.619 577.831L818.741 597.8ZM968.466 537.8L988.435 536.697C987.85 526.096 979.083 517.8 968.466 517.8V537.8ZM975.666 668.2L974.739 688.179C980.39 688.441 985.887 686.297 989.87 682.28C993.852 678.262 995.947 672.746 995.635 667.097L975.666 668.2ZM898.066 664.6L878.081 665.384C878.488 675.759 886.767 684.097 897.139 684.579L898.066 664.6ZM893.066 537.2L892.809 517.202C887.414 517.271 882.275 519.517 878.56 523.431C874.845 527.344 872.869 532.593 873.081 537.984L893.066 537.2ZM908.666 537L928.477 534.261C927.096 524.271 918.493 516.872 908.409 517.002L908.666 537ZM922.466 636.8L902.654 639.539C903.843 648.138 910.442 654.987 918.99 656.496L922.466 636.8ZM946.266 641L942.79 660.696C948.492 661.702 954.351 660.187 958.851 656.544C963.352 652.9 966.052 647.484 966.254 641.697L946.266 641ZM949.866 537.8V517.8C939.091 517.8 930.253 526.335 929.878 537.103L949.866 537.8ZM968.466 537.8L948.496 538.903L955.696 669.303L975.666 668.2L995.635 667.097L988.435 536.697L968.466 537.8ZM975.666 668.2L976.593 648.221L898.993 644.621L898.066 664.6L897.139 684.579L974.739 688.179L975.666 668.2ZM898.066 664.6L918.05 663.816L913.05 536.416L893.066 537.2L873.081 537.984L878.081 665.384L898.066 664.6ZM893.066 537.2L893.322 557.198L908.922 556.998L908.666 537L908.409 517.002L892.809 517.202L893.066 537.2ZM908.666 537L888.854 539.739L902.654 639.539L922.466 636.8L942.277 634.061L928.477 534.261L908.666 537ZM922.466 636.8L918.99 656.496L942.79 660.696L946.266 641L949.741 621.304L925.941 617.104L922.466 636.8ZM946.266 641L966.254 641.697L969.854 538.497L949.866 537.8L929.878 537.103L926.278 640.303L946.266 641ZM949.866 537.8V557.8H968.466V537.8V517.8H949.866V537.8Z" fill="black" mask="url(#path-6-outside-3_130_6)"/>
<mask id="path-8-outside-4_130_6" maskUnits="userSpaceOnUse" x="13.9649" y="521" width="968" height="162" fill="black">
<rect fill="white" x="13.9649" y="521" width="968" height="162"/>
<path d="M80.8001 667.6L49.2001 592.8L44.2001 668.8H32.6001L20.0001 537H53.0001L88.4001 620.8L103.8 539.4L135.2 537L146.8 663.8H131.2L117 580L101 665L80.8001 667.6ZM248.428 540.6L254.628 665.8L243.628 668.4L230.228 628.4L193.828 632L185.428 665.8L177.028 664.8L168.628 537L248.428 540.6ZM193.828 607.6L226.628 609L215.628 563.4L203.228 564.6L193.828 607.6ZM354.631 667.2L305.831 593L300.631 668.4H289.231L276.631 537.2H309.431L351.031 621.6L357.031 542.4L368.631 541L376.231 665.8L354.631 667.2ZM399.316 527.2L493.916 574.6L488.916 634.2L405.316 676.8L399.316 527.2ZM420.516 561.6L428.916 643.6L467.316 617.4L469.516 588.4L420.516 561.6ZM590.225 540.6L596.425 665.8L585.425 668.4L572.025 628.4L535.625 632L527.225 665.8L518.825 664.8L510.425 537L590.225 540.6ZM535.625 607.6L568.425 609L557.425 563.4L545.025 564.6L535.625 607.6ZM681.859 545L679.059 562.4L624.059 565.4L632.259 643.2L679.859 642.4V658.6L613.859 668.4L599.259 537L681.859 545ZM768.936 540.6L775.136 665.8L764.136 668.4L750.736 628.4L714.336 632L705.936 665.8L697.536 664.8L689.136 537L768.936 540.6ZM714.336 607.6L747.136 609L736.136 563.4L723.736 564.6L714.336 607.6ZM884.941 542L857.541 612.4L877.541 663.4L870.141 667L821.341 625L809.741 665.2L795.741 664.4L789.741 537L884.941 542ZM836.541 596.8L853.541 561.2L812.741 564.8L818.741 597.8L836.541 596.8ZM968.466 537.8L975.666 668.2L898.066 664.6L893.066 537.2L908.666 537L922.466 636.8L946.266 641L949.866 537.8H968.466Z"/>
</mask>
<path d="M80.8001 667.6L49.2001 592.8L44.2001 668.8H32.6001L20.0001 537H53.0001L88.4001 620.8L103.8 539.4L135.2 537L146.8 663.8H131.2L117 580L101 665L80.8001 667.6ZM248.428 540.6L254.628 665.8L243.628 668.4L230.228 628.4L193.828 632L185.428 665.8L177.028 664.8L168.628 537L248.428 540.6ZM193.828 607.6L226.628 609L215.628 563.4L203.228 564.6L193.828 607.6ZM354.631 667.2L305.831 593L300.631 668.4H289.231L276.631 537.2H309.431L351.031 621.6L357.031 542.4L368.631 541L376.231 665.8L354.631 667.2ZM399.316 527.2L493.916 574.6L488.916 634.2L405.316 676.8L399.316 527.2ZM420.516 561.6L428.916 643.6L467.316 617.4L469.516 588.4L420.516 561.6ZM590.225 540.6L596.425 665.8L585.425 668.4L572.025 628.4L535.625 632L527.225 665.8L518.825 664.8L510.425 537L590.225 540.6ZM535.625 607.6L568.425 609L557.425 563.4L545.025 564.6L535.625 607.6ZM681.859 545L679.059 562.4L624.059 565.4L632.259 643.2L679.859 642.4V658.6L613.859 668.4L599.259 537L681.859 545ZM768.936 540.6L775.136 665.8L764.136 668.4L750.736 628.4L714.336 632L705.936 665.8L697.536 664.8L689.136 537L768.936 540.6ZM714.336 607.6L747.136 609L736.136 563.4L723.736 564.6L714.336 607.6ZM884.941 542L857.541 612.4L877.541 663.4L870.141 667L821.341 625L809.741 665.2L795.741 664.4L789.741 537L884.941 542ZM836.541 596.8L853.541 561.2L812.741 564.8L818.741 597.8L836.541 596.8ZM968.466 537.8L975.666 668.2L898.066 664.6L893.066 537.2L908.666 537L922.466 636.8L946.266 641L949.866 537.8H968.466Z" fill="#EBE2B9"/>
<path d="M80.8001 667.6L75.273 669.935C76.3213 672.416 78.8945 673.895 81.566 673.551L80.8001 667.6ZM49.2001 592.8L54.7271 590.465C53.645 587.904 50.9446 586.421 48.2026 586.883C45.4607 587.346 43.3955 589.631 43.213 592.406L49.2001 592.8ZM44.2001 668.8V674.8C47.3609 674.8 49.9796 672.348 50.1871 669.194L44.2001 668.8ZM32.6001 668.8L26.6273 669.371C26.9216 672.449 29.5075 674.8 32.6001 674.8V668.8ZM20.0001 537V531C18.3094 531 16.6973 531.713 15.5601 532.964C14.423 534.215 13.8664 535.888 14.0273 537.571L20.0001 537ZM53.0001 537L58.5271 534.665C57.5887 532.444 55.4116 531 53.0001 531V537ZM88.4001 620.8L82.873 623.135C83.9024 625.572 86.4065 627.047 89.037 626.766C91.6675 626.485 93.8037 624.515 94.2955 621.915L88.4001 620.8ZM103.8 539.4L103.343 533.417C100.638 533.624 98.4089 535.62 97.9046 538.285L103.8 539.4ZM135.2 537L141.175 536.453C140.876 533.188 138.012 530.768 134.743 531.017L135.2 537ZM146.8 663.8V669.8C148.486 669.8 150.095 669.09 151.232 667.845C152.369 666.599 152.929 664.933 152.775 663.253L146.8 663.8ZM131.2 663.8L125.284 664.802C125.773 667.688 128.273 669.8 131.2 669.8V663.8ZM117 580L122.916 578.998C122.43 576.132 119.961 574.027 117.055 574C114.149 573.974 111.641 576.034 111.104 578.89L117 580ZM101 665L101.766 670.951C104.344 670.619 106.416 668.665 106.897 666.11L101 665ZM80.8001 667.6L86.3271 665.265L54.7271 590.465L49.2001 592.8L43.673 595.135L75.273 669.935L80.8001 667.6ZM49.2001 592.8L43.213 592.406L38.213 668.406L44.2001 668.8L50.1871 669.194L55.1871 593.194L49.2001 592.8ZM44.2001 668.8V662.8H32.6001V668.8V674.8H44.2001V668.8ZM32.6001 668.8L38.5728 668.229L25.9728 536.429L20.0001 537L14.0273 537.571L26.6273 669.371L32.6001 668.8ZM20.0001 537V543H53.0001V537V531H20.0001V537ZM53.0001 537L47.473 539.335L82.873 623.135L88.4001 620.8L93.9271 618.465L58.5271 534.665L53.0001 537ZM88.4001 620.8L94.2955 621.915L109.695 540.515L103.8 539.4L97.9046 538.285L82.5046 619.685L88.4001 620.8ZM103.8 539.4L104.257 545.383L135.657 542.983L135.2 537L134.743 531.017L103.343 533.417L103.8 539.4ZM135.2 537L129.225 537.547L140.825 664.347L146.8 663.8L152.775 663.253L141.175 536.453L135.2 537ZM146.8 663.8V657.8H131.2V663.8V669.8H146.8V663.8ZM131.2 663.8L137.116 662.798L122.916 578.998L117 580L111.084 581.002L125.284 664.802L131.2 663.8ZM117 580L111.104 578.89L95.1036 663.89L101 665L106.897 666.11L122.897 581.11L117 580ZM101 665L100.234 659.049L80.0341 661.649L80.8001 667.6L81.566 673.551L101.766 670.951L101 665ZM248.428 540.6L254.421 540.303C254.268 537.213 251.79 534.746 248.699 534.606L248.428 540.6ZM254.628 665.8L256.008 671.639C258.824 670.974 260.764 668.393 260.621 665.503L254.628 665.8ZM243.628 668.4L237.939 670.306C238.924 673.247 241.989 674.953 245.008 674.239L243.628 668.4ZM230.228 628.4L235.917 626.494C235.028 623.84 232.423 622.154 229.638 622.429L230.228 628.4ZM193.828 632L193.238 626.029C190.712 626.279 188.617 628.09 188.005 630.553L193.828 632ZM185.428 665.8L184.719 671.758C187.722 672.115 190.522 670.182 191.251 667.247L185.428 665.8ZM177.028 664.8L171.041 665.194C171.231 668.077 173.449 670.416 176.319 670.758L177.028 664.8ZM168.628 537L168.899 531.006C167.194 530.929 165.537 531.582 164.342 532.801C163.148 534.02 162.529 535.69 162.641 537.394L168.628 537ZM193.828 607.6L187.967 606.319C187.588 608.049 187.994 609.859 189.075 611.262C190.156 612.665 191.802 613.519 193.572 613.595L193.828 607.6ZM226.628 609L226.372 614.995C228.254 615.075 230.065 614.267 231.262 612.812C232.459 611.357 232.903 609.424 232.461 607.593L226.628 609ZM215.628 563.4L221.461 561.993C220.76 559.087 218.026 557.14 215.05 557.428L215.628 563.4ZM203.228 564.6L202.65 558.628C200.058 558.879 197.923 560.774 197.367 563.319L203.228 564.6ZM248.428 540.6L242.436 540.897L248.636 666.097L254.628 665.8L260.621 665.503L254.421 540.303L248.428 540.6ZM254.628 665.8L253.248 659.961L242.248 662.561L243.628 668.4L245.008 674.239L256.008 671.639L254.628 665.8ZM243.628 668.4L249.317 666.494L235.917 626.494L230.228 628.4L224.539 630.306L237.939 670.306L243.628 668.4ZM230.228 628.4L229.638 622.429L193.238 626.029L193.828 632L194.419 637.971L230.819 634.371L230.228 628.4ZM193.828 632L188.005 630.553L179.605 664.353L185.428 665.8L191.251 667.247L199.651 633.447L193.828 632ZM185.428 665.8L186.137 659.842L177.737 658.842L177.028 664.8L176.319 670.758L184.719 671.758L185.428 665.8ZM177.028 664.8L183.015 664.406L174.615 536.606L168.628 537L162.641 537.394L171.041 665.194L177.028 664.8ZM168.628 537L168.358 542.994L248.158 546.594L248.428 540.6L248.699 534.606L168.899 531.006L168.628 537ZM193.828 607.6L193.572 613.595L226.372 614.995L226.628 609L226.884 603.005L194.084 601.605L193.828 607.6ZM226.628 609L232.461 607.593L221.461 561.993L215.628 563.4L209.795 564.807L220.795 610.407L226.628 609ZM215.628 563.4L215.05 557.428L202.65 558.628L203.228 564.6L203.806 570.572L216.206 569.372L215.628 563.4ZM203.228 564.6L197.367 563.319L187.967 606.319L193.828 607.6L199.69 608.881L209.09 565.881L203.228 564.6ZM354.631 667.2L349.618 670.497C350.804 672.3 352.866 673.327 355.019 673.187L354.631 667.2ZM305.831 593L310.844 589.703C309.43 587.552 306.8 586.543 304.309 587.196C301.819 587.849 300.023 590.019 299.846 592.587L305.831 593ZM300.631 668.4V674.4C303.785 674.4 306.4 671.959 306.617 668.813L300.631 668.4ZM289.231 668.4L283.259 668.974C283.554 672.051 286.14 674.4 289.231 674.4V668.4ZM276.631 537.2V531.2C274.94 531.2 273.328 531.914 272.191 533.165C271.053 534.417 270.497 536.09 270.659 537.774L276.631 537.2ZM309.431 537.2L314.813 534.547C313.803 532.498 311.716 531.2 309.431 531.2V537.2ZM351.031 621.6L345.65 624.253C346.845 626.678 349.516 628.005 352.171 627.491C354.827 626.977 356.81 624.75 357.014 622.053L351.031 621.6ZM357.031 542.4L356.312 536.443C353.469 536.786 351.265 539.091 351.048 541.947L357.031 542.4ZM368.631 541L374.62 540.635C374.52 538.985 373.743 537.45 372.473 536.391C371.204 535.333 369.553 534.845 367.912 535.043L368.631 541ZM376.231 665.8L376.619 671.787C379.917 671.574 382.421 668.734 382.22 665.435L376.231 665.8ZM354.631 667.2L359.644 663.903L310.844 589.703L305.831 593L300.818 596.297L349.618 670.497L354.631 667.2ZM305.831 593L299.846 592.587L294.646 667.987L300.631 668.4L306.617 668.813L311.817 593.413L305.831 593ZM300.631 668.4V662.4H289.231V668.4V674.4H300.631V668.4ZM289.231 668.4L295.204 667.826L282.604 536.626L276.631 537.2L270.659 537.774L283.259 668.974L289.231 668.4ZM276.631 537.2V543.2H309.431V537.2V531.2H276.631V537.2ZM309.431 537.2L304.05 539.853L345.65 624.253L351.031 621.6L356.413 618.947L314.813 534.547L309.431 537.2ZM351.031 621.6L357.014 622.053L363.014 542.853L357.031 542.4L351.048 541.947L345.048 621.147L351.031 621.6ZM357.031 542.4L357.75 548.357L369.35 546.957L368.631 541L367.912 535.043L356.312 536.443L357.031 542.4ZM368.631 541L362.642 541.365L370.242 666.165L376.231 665.8L382.22 665.435L374.62 540.635L368.631 541ZM376.231 665.8L375.843 659.813L354.243 661.213L354.631 667.2L355.019 673.187L376.619 671.787L376.231 665.8ZM399.316 527.2L402.004 521.836C400.105 520.885 397.846 521.007 396.062 522.159C394.278 523.31 393.235 525.319 393.32 527.44L399.316 527.2ZM493.916 574.6L499.895 575.102C500.1 572.657 498.796 570.334 496.604 569.236L493.916 574.6ZM488.916 634.2L491.64 639.546C493.49 638.603 494.721 636.771 494.895 634.702L488.916 634.2ZM405.316 676.8L399.32 677.04C399.402 679.084 400.519 680.944 402.284 681.978C404.049 683.011 406.218 683.074 408.04 682.146L405.316 676.8ZM420.516 561.6L423.395 556.336C421.44 555.267 419.053 555.369 417.197 556.602C415.34 557.834 414.32 559.995 414.547 562.211L420.516 561.6ZM428.916 643.6L422.947 644.211C423.162 646.315 424.469 648.15 426.387 649.041C428.305 649.932 430.55 649.748 432.297 648.556L428.916 643.6ZM467.316 617.4L470.697 622.356C472.203 621.329 473.161 619.672 473.298 617.854L467.316 617.4ZM469.516 588.4L475.499 588.854C475.677 586.504 474.463 584.267 472.395 583.136L469.516 588.4ZM399.316 527.2L396.628 532.564L491.228 579.964L493.916 574.6L496.604 569.236L402.004 521.836L399.316 527.2ZM493.916 574.6L487.937 574.098L482.937 633.698L488.916 634.2L494.895 634.702L499.895 575.102L493.916 574.6ZM488.916 634.2L486.192 628.854L402.592 671.454L405.316 676.8L408.04 682.146L491.64 639.546L488.916 634.2ZM405.316 676.8L411.311 676.56L405.311 526.96L399.316 527.2L393.32 527.44L399.32 677.04L405.316 676.8ZM420.516 561.6L414.547 562.211L422.947 644.211L428.916 643.6L434.884 642.989L426.484 560.989L420.516 561.6ZM428.916 643.6L432.297 648.556L470.697 622.356L467.316 617.4L463.934 612.444L425.534 638.644L428.916 643.6ZM467.316 617.4L473.298 617.854L475.499 588.854L469.516 588.4L463.533 587.946L461.333 616.946L467.316 617.4ZM469.516 588.4L472.395 583.136L423.395 556.336L420.516 561.6L417.637 566.864L466.637 593.664L469.516 588.4ZM590.225 540.6L596.218 540.303C596.065 537.213 593.587 534.746 590.495 534.606L590.225 540.6ZM596.425 665.8L597.805 671.639C600.621 670.974 602.561 668.393 602.418 665.503L596.425 665.8ZM585.425 668.4L579.736 670.306C580.721 673.247 583.786 674.953 586.805 674.239L585.425 668.4ZM572.025 628.4L577.714 626.494C576.825 623.84 574.22 622.154 571.435 622.429L572.025 628.4ZM535.625 632L535.035 626.029C532.509 626.279 530.414 628.09 529.802 630.553L535.625 632ZM527.225 665.8L526.516 671.758C529.519 672.115 532.319 670.182 533.048 667.247L527.225 665.8ZM518.825 664.8L512.838 665.194C513.028 668.077 515.246 670.416 518.116 670.758L518.825 664.8ZM510.425 537L510.695 531.006C508.99 530.929 507.333 531.582 506.139 532.801C504.945 534.02 504.326 535.69 504.438 537.394L510.425 537ZM535.625 607.6L529.763 606.319C529.385 608.049 529.791 609.859 530.872 611.262C531.953 612.665 533.599 613.519 535.369 613.595L535.625 607.6ZM568.425 609L568.169 614.995C570.051 615.075 571.862 614.267 573.059 612.812C574.256 611.357 574.7 609.424 574.258 607.593L568.425 609ZM557.425 563.4L563.258 561.993C562.557 559.087 559.823 557.14 556.847 557.428L557.425 563.4ZM545.025 564.6L544.447 558.628C541.854 558.879 539.72 560.774 539.164 563.319L545.025 564.6ZM590.225 540.6L584.232 540.897L590.432 666.097L596.425 665.8L602.418 665.503L596.218 540.303L590.225 540.6ZM596.425 665.8L595.045 659.961L584.045 662.561L585.425 668.4L586.805 674.239L597.805 671.639L596.425 665.8ZM585.425 668.4L591.114 666.494L577.714 626.494L572.025 628.4L566.336 630.306L579.736 670.306L585.425 668.4ZM572.025 628.4L571.435 622.429L535.035 626.029L535.625 632L536.216 637.971L572.616 634.371L572.025 628.4ZM535.625 632L529.802 630.553L521.402 664.353L527.225 665.8L533.048 667.247L541.448 633.447L535.625 632ZM527.225 665.8L527.934 659.842L519.534 658.842L518.825 664.8L518.116 670.758L526.516 671.758L527.225 665.8ZM518.825 664.8L524.812 664.406L516.412 536.606L510.425 537L504.438 537.394L512.838 665.194L518.825 664.8ZM510.425 537L510.155 542.994L589.955 546.594L590.225 540.6L590.495 534.606L510.695 531.006L510.425 537ZM535.625 607.6L535.369 613.595L568.169 614.995L568.425 609L568.681 603.005L535.881 601.605L535.625 607.6ZM568.425 609L574.258 607.593L563.258 561.993L557.425 563.4L551.592 564.807L562.592 610.407L568.425 609ZM557.425 563.4L556.847 557.428L544.447 558.628L545.025 564.6L545.603 570.572L558.003 569.372L557.425 563.4ZM545.025 564.6L539.164 563.319L529.763 606.319L535.625 607.6L541.487 608.881L550.887 565.881L545.025 564.6ZM681.859 545L687.783 545.953C688.046 544.317 687.622 542.646 686.609 541.334C685.597 540.022 684.087 539.188 682.438 539.028L681.859 545ZM679.059 562.4L679.386 568.391C682.205 568.237 684.535 566.14 684.983 563.353L679.059 562.4ZM624.059 565.4L623.733 559.409C622.091 559.498 620.558 560.258 619.492 561.509C618.426 562.76 617.92 564.394 618.092 566.029L624.059 565.4ZM632.259 643.2L626.292 643.829C626.618 646.921 629.252 649.251 632.36 649.199L632.259 643.2ZM679.859 642.4H685.859C685.859 640.791 685.213 639.25 684.066 638.122C682.919 636.994 681.367 636.374 679.759 636.401L679.859 642.4ZM679.859 658.6L680.741 664.535C683.682 664.098 685.859 661.573 685.859 658.6H679.859ZM613.859 668.4L607.896 669.063C608.076 670.682 608.907 672.159 610.198 673.153C611.489 674.148 613.129 674.574 614.741 674.335L613.859 668.4ZM599.259 537L599.838 531.028C598.038 530.854 596.256 531.5 594.987 532.787C593.718 534.075 593.096 535.866 593.296 537.663L599.259 537ZM681.859 545L675.936 544.047L673.136 561.447L679.059 562.4L684.983 563.353L687.783 545.953L681.859 545ZM679.059 562.4L678.733 556.409L623.733 559.409L624.059 565.4L624.386 571.391L679.386 568.391L679.059 562.4ZM624.059 565.4L618.092 566.029L626.292 643.829L632.259 643.2L638.226 642.571L630.026 564.771L624.059 565.4ZM632.259 643.2L632.36 649.199L679.96 648.399L679.859 642.4L679.759 636.401L632.159 637.201L632.259 643.2ZM679.859 642.4H673.859V658.6H679.859H685.859V642.4H679.859ZM679.859 658.6L678.978 652.665L612.978 662.465L613.859 668.4L614.741 674.335L680.741 664.535L679.859 658.6ZM613.859 668.4L619.823 667.737L605.223 536.337L599.259 537L593.296 537.663L607.896 669.063L613.859 668.4ZM599.259 537L598.681 542.972L681.281 550.972L681.859 545L682.438 539.028L599.838 531.028L599.259 537ZM768.936 540.6L774.929 540.303C774.776 537.213 772.297 534.746 769.206 534.606L768.936 540.6ZM775.136 665.8L776.516 671.639C779.332 670.974 781.272 668.393 781.129 665.503L775.136 665.8ZM764.136 668.4L758.447 670.306C759.432 673.247 762.497 674.953 765.516 674.239L764.136 668.4ZM750.736 628.4L756.425 626.494C755.536 623.84 752.931 622.154 750.145 622.429L750.736 628.4ZM714.336 632L713.745 626.029C711.22 626.279 709.125 628.09 708.513 630.553L714.336 632ZM705.936 665.8L705.227 671.758C708.23 672.115 711.029 670.182 711.759 667.247L705.936 665.8ZM697.536 664.8L691.549 665.194C691.738 668.077 693.957 670.416 696.827 670.758L697.536 664.8ZM689.136 537L689.406 531.006C687.701 530.929 686.044 531.582 684.85 532.801C683.656 534.02 683.037 535.69 683.149 537.394L689.136 537ZM714.336 607.6L708.474 606.319C708.096 608.049 708.502 609.859 709.583 611.262C710.664 612.665 712.31 613.519 714.08 613.595L714.336 607.6ZM747.136 609L746.88 614.995C748.762 615.075 750.573 614.267 751.77 612.812C752.966 611.357 753.41 609.424 752.969 607.593L747.136 609ZM736.136 563.4L741.969 561.993C741.268 559.087 738.534 557.14 735.558 557.428L736.136 563.4ZM723.736 564.6L723.158 558.628C720.565 558.879 718.431 560.774 717.874 563.319L723.736 564.6ZM768.936 540.6L762.943 540.897L769.143 666.097L775.136 665.8L781.129 665.503L774.929 540.303L768.936 540.6ZM775.136 665.8L773.756 659.961L762.756 662.561L764.136 668.4L765.516 674.239L776.516 671.639L775.136 665.8ZM764.136 668.4L769.825 666.494L756.425 626.494L750.736 628.4L745.047 630.306L758.447 670.306L764.136 668.4ZM750.736 628.4L750.145 622.429L713.745 626.029L714.336 632L714.927 637.971L751.327 634.371L750.736 628.4ZM714.336 632L708.513 630.553L700.113 664.353L705.936 665.8L711.759 667.247L720.159 633.447L714.336 632ZM705.936 665.8L706.645 659.842L698.245 658.842L697.536 664.8L696.827 670.758L705.227 671.758L705.936 665.8ZM697.536 664.8L703.523 664.406L695.123 536.606L689.136 537L683.149 537.394L691.549 665.194L697.536 664.8ZM689.136 537L688.866 542.994L768.666 546.594L768.936 540.6L769.206 534.606L689.406 531.006L689.136 537ZM714.336 607.6L714.08 613.595L746.88 614.995L747.136 609L747.392 603.005L714.592 601.605L714.336 607.6ZM747.136 609L752.969 607.593L741.969 561.993L736.136 563.4L730.303 564.807L741.303 610.407L747.136 609ZM736.136 563.4L735.558 557.428L723.158 558.628L723.736 564.6L724.314 570.572L736.714 569.372L736.136 563.4ZM723.736 564.6L717.874 563.319L708.474 606.319L714.336 607.6L720.198 608.881L729.598 565.881L723.736 564.6ZM884.941 542L890.532 544.176C891.23 542.382 891.025 540.361 889.98 538.744C888.936 537.127 887.178 536.109 885.255 536.008L884.941 542ZM857.541 612.4L851.949 610.224C851.403 611.628 851.405 613.187 851.955 614.591L857.541 612.4ZM877.541 663.4L880.165 668.795C882.98 667.426 884.269 664.123 883.127 661.209L877.541 663.4ZM870.141 667L866.227 671.548C868.042 673.11 870.612 673.443 872.766 672.395L870.141 667ZM821.341 625L825.255 620.452C823.706 619.119 821.585 618.666 819.627 619.25C817.669 619.833 816.142 621.373 815.576 623.337L821.341 625ZM809.741 665.2L809.398 671.19C812.194 671.35 814.729 669.554 815.505 666.863L809.741 665.2ZM795.741 664.4L789.747 664.682C789.892 667.751 792.331 670.215 795.398 670.39L795.741 664.4ZM789.741 537L790.055 531.008C788.363 530.919 786.711 531.551 785.51 532.746C784.308 533.941 783.668 535.589 783.747 537.282L789.741 537ZM836.541 596.8L836.877 602.791C839.065 602.668 841.011 601.362 841.955 599.386L836.541 596.8ZM853.541 561.2L858.955 563.785C859.883 561.842 859.698 559.549 858.47 557.779C857.242 556.009 855.159 555.034 853.013 555.223L853.541 561.2ZM812.741 564.8L812.213 558.823C810.533 558.971 808.992 559.82 807.97 561.162C806.947 562.503 806.536 564.214 806.837 565.873L812.741 564.8ZM818.741 597.8L812.837 598.873C813.379 601.852 816.055 603.96 819.077 603.791L818.741 597.8ZM884.941 542L879.349 539.824L851.949 610.224L857.541 612.4L863.132 614.576L890.532 544.176L884.941 542ZM857.541 612.4L851.955 614.591L871.955 665.591L877.541 663.4L883.127 661.209L863.127 610.209L857.541 612.4ZM877.541 663.4L874.916 658.005L867.516 661.605L870.141 667L872.766 672.395L880.165 668.795L877.541 663.4ZM870.141 667L874.055 662.452L825.255 620.452L821.341 625L817.427 629.548L866.227 671.548L870.141 667ZM821.341 625L815.576 623.337L803.976 663.537L809.741 665.2L815.505 666.863L827.105 626.663L821.341 625ZM809.741 665.2L810.083 659.21L796.083 658.41L795.741 664.4L795.398 670.39L809.398 671.19L809.741 665.2ZM795.741 664.4L801.734 664.118L795.734 536.718L789.741 537L783.747 537.282L789.747 664.682L795.741 664.4ZM789.741 537L789.426 542.992L884.626 547.992L884.941 542L885.255 536.008L790.055 531.008L789.741 537ZM836.541 596.8L841.955 599.386L858.955 563.785L853.541 561.2L848.126 558.614L831.126 594.214L836.541 596.8ZM853.541 561.2L853.013 555.223L812.213 558.823L812.741 564.8L813.268 570.777L854.068 567.177L853.541 561.2ZM812.741 564.8L806.837 565.873L812.837 598.873L818.741 597.8L824.644 596.727L818.644 563.727L812.741 564.8ZM818.741 597.8L819.077 603.791L836.877 602.791L836.541 596.8L836.204 590.809L818.404 591.809L818.741 597.8ZM968.466 537.8L974.457 537.469C974.281 534.289 971.651 531.8 968.466 531.8V537.8ZM975.666 668.2L975.388 674.194C977.083 674.272 978.732 673.629 979.927 672.424C981.122 671.219 981.75 669.564 981.657 667.869L975.666 668.2ZM898.066 664.6L892.07 664.835C892.192 667.948 894.676 670.449 897.788 670.594L898.066 664.6ZM893.066 537.2L892.989 531.2C891.37 531.221 889.829 531.895 888.714 533.069C887.6 534.243 887.007 535.818 887.07 537.435L893.066 537.2ZM908.666 537L914.609 536.178C914.195 533.181 911.614 530.962 908.589 531L908.666 537ZM922.466 636.8L916.522 637.622C916.879 640.201 918.859 642.256 921.423 642.709L922.466 636.8ZM946.266 641L945.223 646.909C946.934 647.211 948.691 646.756 950.041 645.663C951.391 644.57 952.201 642.945 952.262 641.209L946.266 641ZM949.866 537.8V531.8C946.633 531.8 943.982 534.36 943.869 537.591L949.866 537.8ZM968.466 537.8L962.475 538.131L969.675 668.531L975.666 668.2L981.657 667.869L974.457 537.469L968.466 537.8ZM975.666 668.2L975.944 662.206L898.344 658.606L898.066 664.6L897.788 670.594L975.388 674.194L975.666 668.2ZM898.066 664.6L904.061 664.365L899.061 536.965L893.066 537.2L887.07 537.435L892.07 664.835L898.066 664.6ZM893.066 537.2L893.143 543.2L908.743 543L908.666 537L908.589 531L892.989 531.2L893.066 537.2ZM908.666 537L902.722 537.822L916.522 637.622L922.466 636.8L928.409 635.978L914.609 536.178L908.666 537ZM922.466 636.8L921.423 642.709L945.223 646.909L946.266 641L947.308 635.091L923.508 630.891L922.466 636.8ZM946.266 641L952.262 641.209L955.862 538.009L949.866 537.8L943.869 537.591L940.269 640.791L946.266 641ZM949.866 537.8V543.8H968.466V537.8V531.8H949.866V537.8Z" fill="black" mask="url(#path-8-outside-4_130_6)"/>
<mask id="path-10-outside-5_130_6" maskUnits="userSpaceOnUse" x="694.965" y="682" width="297" height="87" fill="black">
<rect fill="white" x="694.965" y="682" width="297" height="87"/>
<path d="M751.201 693.9V702L721.501 706.3L724.201 747.4L739.101 746L744.101 731.5L731.301 729.4L730.201 722.4H755.201L749.801 757.4L712.101 758.8L705.401 692.9L751.201 693.9ZM805.269 694.8L808.369 757.4L802.869 758.7L796.169 738.7L777.969 740.5L773.769 757.4L769.569 756.9L765.369 693L805.269 694.8ZM777.969 728.3L794.369 729L788.869 706.2L782.669 706.8L777.969 728.3ZM849.97 758.3L834.17 720.9L831.67 758.9H825.87L819.57 693H836.07L853.77 734.9L861.47 694.2L877.17 693L882.97 756.4H875.17L868.07 714.5L860.07 757L849.97 758.3ZM930.384 702.4L908.184 703.9L905.784 721L930.384 722.8V729.7L907.784 732.7L909.984 748.1L931.184 748.6L931.684 756.2L897.784 758.7L893.984 693L931.884 693.7L930.384 702.4ZM953.622 704.9L955.522 723.5L980.122 721.4L981.422 758.1L943.422 758.7L944.022 753L967.522 747.9L968.722 734L944.622 736L942.222 693L976.322 693.6L975.722 702.5L953.622 704.9Z"/>
</mask>
<path d="M751.201 693.9V702L721.501 706.3L724.201 747.4L739.101 746L744.101 731.5L731.301 729.4L730.201 722.4H755.201L749.801 757.4L712.101 758.8L705.401 692.9L751.201 693.9ZM805.269 694.8L808.369 757.4L802.869 758.7L796.169 738.7L777.969 740.5L773.769 757.4L769.569 756.9L765.369 693L805.269 694.8ZM777.969 728.3L794.369 729L788.869 706.2L782.669 706.8L777.969 728.3ZM849.97 758.3L834.17 720.9L831.67 758.9H825.87L819.57 693H836.07L853.77 734.9L861.47 694.2L877.17 693L882.97 756.4H875.17L868.07 714.5L860.07 757L849.97 758.3ZM930.384 702.4L908.184 703.9L905.784 721L930.384 722.8V729.7L907.784 732.7L909.984 748.1L931.184 748.6L931.684 756.2L897.784 758.7L893.984 693L931.884 693.7L930.384 702.4ZM953.622 704.9L955.522 723.5L980.122 721.4L981.422 758.1L943.422 758.7L944.022 753L967.522 747.9L968.722 734L944.622 736L942.222 693L976.322 693.6L975.722 702.5L953.622 704.9Z" fill="black"/>
<path d="M751.201 693.9H761.201C761.201 688.462 756.856 684.021 751.419 683.902L751.201 693.9ZM751.201 702L752.634 711.897C757.552 711.185 761.201 706.969 761.201 702H751.201ZM721.501 706.3L720.068 696.403C714.902 697.151 711.18 701.747 711.522 706.956L721.501 706.3ZM724.201 747.4L714.222 748.056C714.399 750.751 715.659 753.259 717.715 755.011C719.77 756.763 722.447 757.609 725.136 757.356L724.201 747.4ZM739.101 746L740.036 755.956C743.944 755.589 747.275 752.97 748.555 749.26L739.101 746ZM744.101 731.5L753.555 734.76C754.515 731.974 754.198 728.906 752.688 726.375C751.178 723.845 748.628 722.109 745.72 721.632L744.101 731.5ZM731.301 729.4L721.422 730.952C722.092 735.216 725.422 738.569 729.682 739.268L731.301 729.4ZM730.201 722.4V712.4C727.278 712.4 724.501 713.679 722.601 715.901C720.701 718.123 719.868 721.065 720.322 723.952L730.201 722.4ZM755.201 722.4L765.084 723.925C765.529 721.041 764.692 718.106 762.792 715.89C760.892 713.675 758.119 712.4 755.201 712.4V722.4ZM749.801 757.4L750.172 767.393C754.963 767.215 758.953 763.663 759.684 758.925L749.801 757.4ZM712.101 758.8L702.152 759.811C702.686 765.058 707.202 768.989 712.472 768.793L712.101 758.8ZM705.401 692.9L705.619 682.902C702.754 682.84 699.999 684.01 698.054 686.115C696.11 688.221 695.162 691.06 695.452 693.911L705.401 692.9ZM751.201 693.9H741.201V702H751.201H761.201V693.9H751.201ZM751.201 702L749.768 692.103L720.068 696.403L721.501 706.3L722.934 716.197L752.634 711.897L751.201 702ZM721.501 706.3L711.522 706.956L714.222 748.056L724.201 747.4L734.179 746.744L731.479 705.644L721.501 706.3ZM724.201 747.4L725.136 757.356L740.036 755.956L739.101 746L738.165 736.044L723.265 737.444L724.201 747.4ZM739.101 746L748.555 749.26L753.555 734.76L744.101 731.5L734.647 728.24L729.647 742.74L739.101 746ZM744.101 731.5L745.72 721.632L732.92 719.532L731.301 729.4L729.682 739.268L742.482 741.368L744.101 731.5ZM731.301 729.4L741.18 727.848L740.08 720.848L730.201 722.4L720.322 723.952L721.422 730.952L731.301 729.4ZM730.201 722.4V732.4H755.201V722.4V712.4H730.201V722.4ZM755.201 722.4L745.318 720.875L739.918 755.875L749.801 757.4L759.684 758.925L765.084 723.925L755.201 722.4ZM749.801 757.4L749.43 747.407L711.73 748.807L712.101 758.8L712.472 768.793L750.172 767.393L749.801 757.4ZM712.101 758.8L722.05 757.789L715.35 691.889L705.401 692.9L695.452 693.911L702.152 759.811L712.101 758.8ZM705.401 692.9L705.183 702.898L750.983 703.898L751.201 693.9L751.419 683.902L705.619 682.902L705.401 692.9ZM805.269 694.8L815.257 694.305C815.002 689.155 810.871 685.043 805.719 684.81L805.269 694.8ZM808.369 757.4L810.669 767.132C815.362 766.023 818.595 761.722 818.357 756.905L808.369 757.4ZM802.869 758.7L793.387 761.876C795.029 766.779 800.138 769.621 805.169 768.432L802.869 758.7ZM796.169 738.7L805.651 735.524C804.169 731.101 799.826 728.289 795.185 728.749L796.169 738.7ZM777.969 740.5L776.985 730.549C772.776 730.965 769.284 733.984 768.264 738.088L777.969 740.5ZM773.769 757.4L772.587 767.33C777.592 767.926 782.258 764.703 783.474 759.812L773.769 757.4ZM769.569 756.9L759.59 757.556C759.906 762.362 763.604 766.26 768.387 766.83L769.569 756.9ZM765.369 693L765.819 683.01C762.978 682.882 760.216 683.97 758.225 686.002C756.235 688.034 755.204 690.817 755.39 693.656L765.369 693ZM777.969 728.3L768.2 726.164C767.569 729.049 768.245 732.064 770.047 734.403C771.849 736.742 774.593 738.165 777.542 738.291L777.969 728.3ZM794.369 729L793.942 738.991C797.079 739.125 800.097 737.778 802.092 735.353C804.086 732.928 804.826 729.707 804.09 726.655L794.369 729ZM788.869 706.2L798.59 703.855C797.421 699.011 792.865 695.767 787.906 696.246L788.869 706.2ZM782.669 706.8L781.706 696.846C777.384 697.265 773.827 700.423 772.9 704.664L782.669 706.8ZM805.269 694.8L795.281 695.295L798.381 757.895L808.369 757.4L818.357 756.905L815.257 694.305L805.269 694.8ZM808.369 757.4L806.069 747.668L800.569 748.968L802.869 758.7L805.169 768.432L810.669 767.132L808.369 757.4ZM802.869 758.7L812.351 755.524L805.651 735.524L796.169 738.7L786.687 741.876L793.387 761.876L802.869 758.7ZM796.169 738.7L795.185 728.749L776.985 730.549L777.969 740.5L778.953 750.451L797.153 748.651L796.169 738.7ZM777.969 740.5L768.264 738.088L764.064 754.988L773.769 757.4L783.474 759.812L787.674 742.912L777.969 740.5ZM773.769 757.4L774.951 747.47L770.751 746.97L769.569 756.9L768.387 766.83L772.587 767.33L773.769 757.4ZM769.569 756.9L779.547 756.244L775.347 692.344L765.369 693L755.39 693.656L759.59 757.556L769.569 756.9ZM765.369 693L764.918 702.99L804.818 704.79L805.269 694.8L805.719 684.81L765.819 683.01L765.369 693ZM777.969 728.3L777.542 738.291L793.942 738.991L794.369 729L794.795 719.009L778.395 718.309L777.969 728.3ZM794.369 729L804.09 726.655L798.59 703.855L788.869 706.2L779.148 708.545L784.648 731.345L794.369 729ZM788.869 706.2L787.906 696.246L781.706 696.846L782.669 706.8L783.632 716.753L789.832 716.153L788.869 706.2ZM782.669 706.8L772.9 704.664L768.2 726.164L777.969 728.3L787.738 730.436L792.438 708.936L782.669 706.8ZM849.97 758.3L840.759 762.192C842.506 766.327 846.794 768.791 851.247 768.218L849.97 758.3ZM834.17 720.9L843.382 717.008C841.579 712.739 837.078 710.269 832.508 711.039C827.938 711.81 824.496 715.619 824.192 720.244L834.17 720.9ZM831.67 758.9V768.9C836.938 768.9 841.303 764.813 841.649 759.556L831.67 758.9ZM825.87 758.9L815.916 759.852C816.406 764.982 820.716 768.9 825.87 768.9V758.9ZM819.57 693V683C816.753 683 814.066 684.189 812.17 686.274C810.275 688.359 809.348 691.147 809.616 693.952L819.57 693ZM836.07 693L845.282 689.109C843.718 685.406 840.09 683 836.07 683V693ZM853.77 734.9L844.559 738.791C846.274 742.853 850.448 745.312 854.832 744.843C859.216 744.375 862.776 741.091 863.596 736.759L853.77 734.9ZM861.47 694.2L860.708 684.229C856.201 684.574 852.485 687.899 851.645 692.341L861.47 694.2ZM877.17 693L887.129 692.089C886.631 686.647 881.857 682.613 876.408 683.029L877.17 693ZM882.97 756.4V766.4C885.781 766.4 888.462 765.217 890.357 763.141C892.251 761.065 893.185 758.288 892.929 755.489L882.97 756.4ZM875.17 756.4L865.311 758.071C866.126 762.88 870.292 766.4 875.17 766.4V756.4ZM868.07 714.5L877.93 712.829C877.121 708.054 873.005 704.544 868.161 704.5C863.318 704.456 859.139 707.89 858.243 712.65L868.07 714.5ZM860.07 757L861.347 766.918C865.644 766.365 869.096 763.108 869.898 758.85L860.07 757ZM849.97 758.3L859.182 754.408L843.382 717.008L834.17 720.9L824.959 724.792L840.759 762.192L849.97 758.3ZM834.17 720.9L824.192 720.244L821.692 758.244L831.67 758.9L841.649 759.556L844.149 721.556L834.17 720.9ZM831.67 758.9V748.9H825.87V758.9V768.9H831.67V758.9ZM825.87 758.9L835.825 757.948L829.525 692.048L819.57 693L809.616 693.952L815.916 759.852L825.87 758.9ZM819.57 693V703H836.07V693V683H819.57V693ZM836.07 693L826.859 696.891L844.559 738.791L853.77 734.9L862.982 731.009L845.282 689.109L836.07 693ZM853.77 734.9L863.596 736.759L871.296 696.059L861.47 694.2L851.645 692.341L843.945 733.041L853.77 734.9ZM861.47 694.2L862.232 704.171L877.932 702.971L877.17 693L876.408 683.029L860.708 684.229L861.47 694.2ZM877.17 693L867.212 693.911L873.012 757.311L882.97 756.4L892.929 755.489L887.129 692.089L877.17 693ZM882.97 756.4V746.4H875.17V756.4V766.4H882.97V756.4ZM875.17 756.4L885.03 754.729L877.93 712.829L868.07 714.5L858.211 716.171L865.311 758.071L875.17 756.4ZM868.07 714.5L858.243 712.65L850.243 755.15L860.07 757L869.898 758.85L877.898 716.35L868.07 714.5ZM860.07 757L858.794 747.082L848.694 748.382L849.97 758.3L851.247 768.218L861.347 766.918L860.07 757ZM930.384 702.4L931.059 712.377C935.662 712.066 939.455 708.646 940.239 704.099L930.384 702.4ZM908.184 703.9L907.51 693.923C902.79 694.242 898.939 697.825 898.281 702.51L908.184 703.9ZM905.784 721L895.882 719.61C895.497 722.351 896.265 725.128 898.003 727.281C899.742 729.435 902.295 730.771 905.055 730.973L905.784 721ZM930.384 722.8H940.384C940.384 717.56 936.34 713.209 931.114 712.827L930.384 722.8ZM930.384 729.7L931.7 739.613C936.671 738.953 940.384 734.714 940.384 729.7H930.384ZM907.784 732.7L906.469 722.787C903.822 723.138 901.427 724.533 899.814 726.66C898.202 728.788 897.507 731.472 897.885 734.114L907.784 732.7ZM909.984 748.1L900.085 749.514C900.776 754.352 904.863 757.982 909.749 758.097L909.984 748.1ZM931.184 748.6L941.163 747.944C940.823 742.777 936.596 738.725 931.42 738.603L931.184 748.6ZM931.684 756.2L932.42 766.173C937.897 765.769 942.023 761.024 941.663 755.544L931.684 756.2ZM897.784 758.7L887.801 759.277C887.956 761.953 889.178 764.454 891.193 766.22C893.208 767.986 895.848 768.87 898.52 768.673L897.784 758.7ZM893.984 693L894.169 683.002C891.385 682.95 888.706 684.062 886.776 686.069C884.846 688.077 883.84 690.798 884.001 693.577L893.984 693ZM931.884 693.7L941.739 695.399C942.235 692.524 941.45 689.577 939.592 687.328C937.733 685.08 934.986 683.756 932.069 683.702L931.884 693.7ZM930.384 702.4L929.71 692.423L907.51 693.923L908.184 703.9L908.859 713.877L931.059 712.377L930.384 702.4ZM908.184 703.9L898.281 702.51L895.882 719.61L905.784 721L915.687 722.39L918.087 705.29L908.184 703.9ZM905.784 721L905.055 730.973L929.655 732.773L930.384 722.8L931.114 712.827L906.514 711.027L905.784 721ZM930.384 722.8H920.384V729.7H930.384H940.384V722.8H930.384ZM930.384 729.7L929.069 719.787L906.469 722.787L907.784 732.7L909.1 742.613L931.7 739.613L930.384 729.7ZM907.784 732.7L897.885 734.114L900.085 749.514L909.984 748.1L919.884 746.686L917.684 731.286L907.784 732.7ZM909.984 748.1L909.749 758.097L930.949 758.597L931.184 748.6L931.42 738.603L910.22 738.103L909.984 748.1ZM931.184 748.6L921.206 749.256L921.706 756.856L931.684 756.2L941.663 755.544L941.163 747.944L931.184 748.6ZM931.684 756.2L930.949 746.227L897.049 748.727L897.784 758.7L898.52 768.673L932.42 766.173L931.684 756.2ZM897.784 758.7L907.768 758.123L903.968 692.423L893.984 693L884.001 693.577L887.801 759.277L897.784 758.7ZM893.984 693L893.8 702.998L931.7 703.698L931.884 693.7L932.069 683.702L894.169 683.002L893.984 693ZM931.884 693.7L922.03 692.001L920.53 700.701L930.384 702.4L940.239 704.099L941.739 695.399L931.884 693.7ZM953.622 704.9L952.542 694.958C947.076 695.552 943.115 700.447 943.674 705.916L953.622 704.9ZM955.522 723.5L945.574 724.516C946.128 729.946 950.934 733.928 956.372 733.464L955.522 723.5ZM980.122 721.4L990.116 721.046C990.019 718.309 988.804 715.732 986.754 713.916C984.705 712.1 982 711.203 979.271 711.436L980.122 721.4ZM981.422 758.1L981.58 768.099C984.266 768.056 986.822 766.935 988.672 764.988C990.522 763.04 991.511 760.43 991.416 757.746L981.422 758.1ZM943.422 758.7L933.477 757.653C933.177 760.499 934.111 763.337 936.043 765.449C937.975 767.561 940.718 768.744 943.58 768.699L943.422 758.7ZM944.022 753L941.901 743.227C937.683 744.143 934.529 747.661 934.077 751.953L944.022 753ZM967.522 747.9L969.643 757.673C973.928 756.742 977.108 753.129 977.485 748.76L967.522 747.9ZM968.722 734L978.685 734.86C978.938 731.925 977.884 729.027 975.805 726.941C973.725 724.854 970.831 723.791 967.895 724.034L968.722 734ZM944.622 736L934.637 736.557C934.788 739.252 936.021 741.772 938.057 743.544C940.093 745.315 942.759 746.189 945.449 745.966L944.622 736ZM942.222 693L942.398 683.002C939.619 682.953 936.945 684.063 935.017 686.065C933.09 688.068 932.083 690.782 932.237 693.557L942.222 693ZM976.322 693.6L986.299 694.273C986.483 691.54 985.539 688.852 983.687 686.835C981.834 684.819 979.236 683.65 976.498 683.602L976.322 693.6ZM975.722 702.5L976.802 712.442C981.623 711.918 985.373 708.011 985.699 703.173L975.722 702.5ZM953.622 704.9L943.674 705.916L945.574 724.516L955.522 723.5L965.47 722.484L963.57 703.884L953.622 704.9ZM955.522 723.5L956.372 733.464L980.973 731.364L980.122 721.4L979.271 711.436L954.671 713.536L955.522 723.5ZM980.122 721.4L970.128 721.754L971.428 758.454L981.422 758.1L991.416 757.746L990.116 721.046L980.122 721.4ZM981.422 758.1L981.264 748.101L943.264 748.701L943.422 758.7L943.58 768.699L981.58 768.099L981.422 758.1ZM943.422 758.7L953.367 759.747L953.967 754.047L944.022 753L934.077 751.953L933.477 757.653L943.422 758.7ZM944.022 753L946.143 762.773L969.643 757.673L967.522 747.9L965.401 738.127L941.901 743.227L944.022 753ZM967.522 747.9L977.485 748.76L978.685 734.86L968.722 734L958.759 733.14L957.559 747.04L967.522 747.9ZM968.722 734L967.895 724.034L943.795 726.034L944.622 736L945.449 745.966L969.549 743.966L968.722 734ZM944.622 736L954.606 735.443L952.206 692.443L942.222 693L932.237 693.557L934.637 736.557L944.622 736ZM942.222 693L942.046 702.998L976.146 703.598L976.322 693.6L976.498 683.602L942.398 683.002L942.222 693ZM976.322 693.6L966.345 692.927L965.745 701.827L975.722 702.5L985.699 703.173L986.299 694.273L976.322 693.6ZM975.722 702.5L974.642 692.558L952.542 694.958L953.622 704.9L954.702 714.842L976.802 712.442L975.722 702.5Z" fill="black" mask="url(#path-10-outside-5_130_6)"/>
<mask id="path-12-outside-6_130_6" maskUnits="userSpaceOnUse" x="698.965" y="686" width="289" height="79" fill="black">
<rect fill="white" x="698.965" y="686" width="289" height="79"/>
<path d="M751.201 693.9V702L721.501 706.3L724.201 747.4L739.101 746L744.101 731.5L731.301 729.4L730.201 722.4H755.201L749.801 757.4L712.101 758.8L705.401 692.9L751.201 693.9ZM805.269 694.8L808.369 757.4L802.869 758.7L796.169 738.7L777.969 740.5L773.769 757.4L769.569 756.9L765.369 693L805.269 694.8ZM777.969 728.3L794.369 729L788.869 706.2L782.669 706.8L777.969 728.3ZM849.97 758.3L834.17 720.9L831.67 758.9H825.87L819.57 693H836.07L853.77 734.9L861.47 694.2L877.17 693L882.97 756.4H875.17L868.07 714.5L860.07 757L849.97 758.3ZM930.384 702.4L908.184 703.9L905.784 721L930.384 722.8V729.7L907.784 732.7L909.984 748.1L931.184 748.6L931.684 756.2L897.784 758.7L893.984 693L931.884 693.7L930.384 702.4ZM953.622 704.9L955.522 723.5L980.122 721.4L981.422 758.1L943.422 758.7L944.022 753L967.522 747.9L968.722 734L944.622 736L942.222 693L976.322 693.6L975.722 702.5L953.622 704.9Z"/>
</mask>
<path d="M751.201 693.9V702L721.501 706.3L724.201 747.4L739.101 746L744.101 731.5L731.301 729.4L730.201 722.4H755.201L749.801 757.4L712.101 758.8L705.401 692.9L751.201 693.9ZM805.269 694.8L808.369 757.4L802.869 758.7L796.169 738.7L777.969 740.5L773.769 757.4L769.569 756.9L765.369 693L805.269 694.8ZM777.969 728.3L794.369 729L788.869 706.2L782.669 706.8L777.969 728.3ZM849.97 758.3L834.17 720.9L831.67 758.9H825.87L819.57 693H836.07L853.77 734.9L861.47 694.2L877.17 693L882.97 756.4H875.17L868.07 714.5L860.07 757L849.97 758.3ZM930.384 702.4L908.184 703.9L905.784 721L930.384 722.8V729.7L907.784 732.7L909.984 748.1L931.184 748.6L931.684 756.2L897.784 758.7L893.984 693L931.884 693.7L930.384 702.4ZM953.622 704.9L955.522 723.5L980.122 721.4L981.422 758.1L943.422 758.7L944.022 753L967.522 747.9L968.722 734L944.622 736L942.222 693L976.322 693.6L975.722 702.5L953.622 704.9Z" fill="#EBE2B9"/>
<path d="M751.201 693.9H757.201C757.201 690.637 754.594 687.973 751.332 687.901L751.201 693.9ZM751.201 702L752.061 707.938C755.011 707.511 757.201 704.982 757.201 702H751.201ZM721.501 706.3L720.641 700.362C717.541 700.811 715.308 703.568 715.514 706.693L721.501 706.3ZM724.201 747.4L718.214 747.793C718.32 749.41 719.076 750.916 720.309 751.967C721.543 753.018 723.149 753.525 724.762 753.374L724.201 747.4ZM739.101 746L739.662 751.974C742.007 751.753 744.005 750.182 744.773 747.956L739.101 746ZM744.101 731.5L749.773 733.456C750.35 731.784 750.159 729.944 749.253 728.425C748.347 726.907 746.817 725.865 745.072 725.579L744.101 731.5ZM731.301 729.4L725.374 730.331C725.776 732.89 727.774 734.902 730.329 735.321L731.301 729.4ZM730.201 722.4V716.4C728.447 716.4 726.781 717.167 725.641 718.501C724.501 719.834 724.001 721.599 724.274 723.331L730.201 722.4ZM755.201 722.4L761.131 723.315C761.398 721.584 760.895 719.823 759.755 718.494C758.616 717.165 756.952 716.4 755.201 716.4V722.4ZM749.801 757.4L750.024 763.396C752.898 763.289 755.292 761.158 755.731 758.315L749.801 757.4ZM712.101 758.8L706.132 759.407C706.452 762.555 709.161 764.913 712.324 764.796L712.101 758.8ZM705.401 692.9L705.532 686.901C703.812 686.864 702.16 687.566 700.993 688.829C699.826 690.093 699.258 691.796 699.432 693.507L705.401 692.9ZM751.201 693.9H745.201V702H751.201H757.201V693.9H751.201ZM751.201 702L750.341 696.062L720.641 700.362L721.501 706.3L722.361 712.238L752.061 707.938L751.201 702ZM721.501 706.3L715.514 706.693L718.214 747.793L724.201 747.4L730.188 747.007L727.488 705.907L721.501 706.3ZM724.201 747.4L724.762 753.374L739.662 751.974L739.101 746L738.54 740.026L723.64 741.426L724.201 747.4ZM739.101 746L744.773 747.956L749.773 733.456L744.101 731.5L738.429 729.544L733.429 744.044L739.101 746ZM744.101 731.5L745.072 725.579L732.272 723.479L731.301 729.4L730.329 735.321L743.129 737.421L744.101 731.5ZM731.301 729.4L737.228 728.469L736.128 721.469L730.201 722.4L724.274 723.331L725.374 730.331L731.301 729.4ZM730.201 722.4V728.4H755.201V722.4V716.4H730.201V722.4ZM755.201 722.4L749.271 721.485L743.871 756.485L749.801 757.4L755.731 758.315L761.131 723.315L755.201 722.4ZM749.801 757.4L749.578 751.404L711.878 752.804L712.101 758.8L712.324 764.796L750.024 763.396L749.801 757.4ZM712.101 758.8L718.07 758.193L711.37 692.293L705.401 692.9L699.432 693.507L706.132 759.407L712.101 758.8ZM705.401 692.9L705.27 698.899L751.07 699.899L751.201 693.9L751.332 687.901L705.532 686.901L705.401 692.9ZM805.269 694.8L811.261 694.503C811.108 691.413 808.63 688.946 805.539 688.806L805.269 694.8ZM808.369 757.4L809.749 763.239C812.565 762.574 814.505 759.993 814.361 757.103L808.369 757.4ZM802.869 758.7L797.18 760.606C798.165 763.547 801.23 765.253 804.249 764.539L802.869 758.7ZM796.169 738.7L801.858 736.794C800.969 734.14 798.363 732.454 795.578 732.729L796.169 738.7ZM777.969 740.5L777.378 734.529C774.853 734.779 772.758 736.59 772.146 739.053L777.969 740.5ZM773.769 757.4L773.06 763.358C776.063 763.715 778.862 761.782 779.592 758.847L773.769 757.4ZM769.569 756.9L763.582 757.294C763.771 760.177 765.99 762.516 768.86 762.858L769.569 756.9ZM765.369 693L765.639 687.006C763.934 686.929 762.277 687.582 761.083 688.801C759.888 690.02 759.27 691.69 759.382 693.394L765.369 693ZM777.969 728.3L772.107 727.019C771.729 728.749 772.135 730.559 773.216 731.962C774.297 733.365 775.943 734.219 777.713 734.295L777.969 728.3ZM794.369 729L794.113 734.995C795.995 735.075 797.806 734.267 799.002 732.812C800.199 731.357 800.643 729.424 800.202 727.593L794.369 729ZM788.869 706.2L794.702 704.793C794 701.887 791.267 699.94 788.291 700.228L788.869 706.2ZM782.669 706.8L782.091 700.828C779.498 701.079 777.364 702.974 776.807 705.519L782.669 706.8ZM805.269 694.8L799.276 695.097L802.376 757.697L808.369 757.4L814.361 757.103L811.261 694.503L805.269 694.8ZM808.369 757.4L806.989 751.561L801.489 752.861L802.869 758.7L804.249 764.539L809.749 763.239L808.369 757.4ZM802.869 758.7L808.558 756.794L801.858 736.794L796.169 738.7L790.48 740.606L797.18 760.606L802.869 758.7ZM796.169 738.7L795.578 732.729L777.378 734.529L777.969 740.5L778.559 746.471L796.759 744.671L796.169 738.7ZM777.969 740.5L772.146 739.053L767.946 755.953L773.769 757.4L779.592 758.847L783.792 741.947L777.969 740.5ZM773.769 757.4L774.478 751.442L770.278 750.942L769.569 756.9L768.86 762.858L773.06 763.358L773.769 757.4ZM769.569 756.9L775.556 756.506L771.356 692.606L765.369 693L759.382 693.394L763.582 757.294L769.569 756.9ZM765.369 693L765.098 698.994L804.998 700.794L805.269 694.8L805.539 688.806L765.639 687.006L765.369 693ZM777.969 728.3L777.713 734.295L794.113 734.995L794.369 729L794.625 723.005L778.225 722.305L777.969 728.3ZM794.369 729L800.202 727.593L794.702 704.793L788.869 706.2L783.036 707.607L788.536 730.407L794.369 729ZM788.869 706.2L788.291 700.228L782.091 700.828L782.669 706.8L783.247 712.772L789.447 712.172L788.869 706.2ZM782.669 706.8L776.807 705.519L772.107 727.019L777.969 728.3L783.83 729.581L788.53 708.081L782.669 706.8ZM849.97 758.3L844.443 760.635C845.492 763.116 848.065 764.595 850.736 764.251L849.97 758.3ZM834.17 720.9L839.697 718.565C838.615 716.004 835.915 714.521 833.173 714.983C830.431 715.446 828.366 717.731 828.183 720.506L834.17 720.9ZM831.67 758.9V764.9C834.831 764.9 837.45 762.448 837.657 759.294L831.67 758.9ZM825.87 758.9L819.898 759.471C820.192 762.549 822.778 764.9 825.87 764.9V758.9ZM819.57 693V687C817.88 687 816.268 687.713 815.13 688.964C813.993 690.215 813.437 691.888 813.598 693.571L819.57 693ZM836.07 693L841.597 690.665C840.659 688.444 838.482 687 836.07 687V693ZM853.77 734.9L848.243 737.235C849.273 739.672 851.777 741.147 854.407 740.866C857.038 740.585 859.174 738.615 859.666 736.015L853.77 734.9ZM861.47 694.2L861.013 688.217C858.309 688.424 856.079 690.42 855.575 693.085L861.47 694.2ZM877.17 693L883.145 692.453C882.847 689.188 879.982 686.768 876.713 687.017L877.17 693ZM882.97 756.4V762.4C884.657 762.4 886.265 761.69 887.402 760.445C888.539 759.199 889.099 757.533 888.945 755.853L882.97 756.4ZM875.17 756.4L869.255 757.402C869.744 760.288 872.243 762.4 875.17 762.4V756.4ZM868.07 714.5L873.986 713.498C873.501 710.632 871.031 708.527 868.125 708.5C865.219 708.474 862.712 710.534 862.174 713.39L868.07 714.5ZM860.07 757L860.836 762.951C863.415 762.619 865.486 760.665 865.967 758.11L860.07 757ZM849.97 758.3L855.497 755.965L839.697 718.565L834.17 720.9L828.643 723.235L844.443 760.635L849.97 758.3ZM834.17 720.9L828.183 720.506L825.683 758.506L831.67 758.9L837.657 759.294L840.157 721.294L834.17 720.9ZM831.67 758.9V752.9H825.87V758.9V764.9H831.67V758.9ZM825.87 758.9L831.843 758.329L825.543 692.429L819.57 693L813.598 693.571L819.898 759.471L825.87 758.9ZM819.57 693V699H836.07V693V687H819.57V693ZM836.07 693L830.543 695.335L848.243 737.235L853.77 734.9L859.297 732.565L841.597 690.665L836.07 693ZM853.77 734.9L859.666 736.015L867.366 695.315L861.47 694.2L855.575 693.085L847.875 733.785L853.77 734.9ZM861.47 694.2L861.928 700.183L877.628 698.983L877.17 693L876.713 687.017L861.013 688.217L861.47 694.2ZM877.17 693L871.195 693.547L876.995 756.947L882.97 756.4L888.945 755.853L883.145 692.453L877.17 693ZM882.97 756.4V750.4H875.17V756.4V762.4H882.97V756.4ZM875.17 756.4L881.086 755.398L873.986 713.498L868.07 714.5L862.155 715.502L869.255 757.402L875.17 756.4ZM868.07 714.5L862.174 713.39L854.174 755.89L860.07 757L865.967 758.11L873.967 715.61L868.07 714.5ZM860.07 757L859.304 751.049L849.204 752.349L849.97 758.3L850.736 764.251L860.836 762.951L860.07 757ZM930.384 702.4L930.789 708.386C933.551 708.2 935.827 706.148 936.297 703.419L930.384 702.4ZM908.184 703.9L907.78 697.914C904.948 698.105 902.637 700.255 902.243 703.066L908.184 703.9ZM905.784 721L899.843 720.166C899.612 721.81 900.073 723.477 901.116 724.769C902.159 726.061 903.691 726.863 905.347 726.984L905.784 721ZM930.384 722.8H936.384C936.384 719.656 933.958 717.045 930.822 716.816L930.384 722.8ZM930.384 729.7L931.174 735.648C934.156 735.252 936.384 732.709 936.384 729.7H930.384ZM907.784 732.7L906.995 726.752C905.407 726.963 903.97 727.8 903.002 729.076C902.035 730.353 901.618 731.963 901.845 733.549L907.784 732.7ZM909.984 748.1L904.045 748.949C904.459 751.851 906.911 754.029 909.843 754.098L909.984 748.1ZM931.184 748.6L937.171 748.206C936.968 745.106 934.431 742.675 931.326 742.602L931.184 748.6ZM931.684 756.2L932.126 762.184C935.412 761.941 937.888 759.094 937.671 755.806L931.684 756.2ZM897.784 758.7L891.794 759.046C891.887 760.652 892.62 762.152 893.829 763.212C895.039 764.272 896.622 764.802 898.226 764.684L897.784 758.7ZM893.984 693L894.095 687.001C892.425 686.97 890.817 687.637 889.659 688.842C888.501 690.046 887.898 691.679 887.994 693.346L893.984 693ZM931.884 693.7L937.797 694.719C938.095 692.995 937.624 691.226 936.509 689.877C935.394 688.528 933.745 687.733 931.995 687.701L931.884 693.7ZM930.384 702.4L929.98 696.414L907.78 697.914L908.184 703.9L908.589 709.886L930.789 708.386L930.384 702.4ZM908.184 703.9L902.243 703.066L899.843 720.166L905.784 721L911.726 721.834L914.126 704.734L908.184 703.9ZM905.784 721L905.347 726.984L929.947 728.784L930.384 722.8L930.822 716.816L906.222 715.016L905.784 721ZM930.384 722.8H924.384V729.7H930.384H936.384V722.8H930.384ZM930.384 729.7L929.595 723.752L906.995 726.752L907.784 732.7L908.574 738.648L931.174 735.648L930.384 729.7ZM907.784 732.7L901.845 733.549L904.045 748.949L909.984 748.1L915.924 747.251L913.724 731.851L907.784 732.7ZM909.984 748.1L909.843 754.098L931.043 754.598L931.184 748.6L931.326 742.602L910.126 742.102L909.984 748.1ZM931.184 748.6L925.197 748.994L925.697 756.594L931.684 756.2L937.671 755.806L937.171 748.206L931.184 748.6ZM931.684 756.2L931.243 750.216L897.343 752.716L897.784 758.7L898.226 764.684L932.126 762.184L931.684 756.2ZM897.784 758.7L903.774 758.354L899.974 692.654L893.984 693L887.994 693.346L891.794 759.046L897.784 758.7ZM893.984 693L893.874 698.999L931.774 699.699L931.884 693.7L931.995 687.701L894.095 687.001L893.984 693ZM931.884 693.7L925.972 692.681L924.472 701.381L930.384 702.4L936.297 703.419L937.797 694.719L931.884 693.7ZM953.622 704.9L952.974 698.935C949.695 699.291 947.318 702.228 947.653 705.51L953.622 704.9ZM955.522 723.5L949.553 724.11C949.886 727.368 952.769 729.757 956.032 729.478L955.522 723.5ZM980.122 721.4L986.118 721.188C986.06 719.546 985.331 717.999 984.101 716.909C982.872 715.82 981.249 715.282 979.612 715.422L980.122 721.4ZM981.422 758.1L981.517 764.099C983.128 764.074 984.662 763.401 985.772 762.233C986.882 761.064 987.475 759.498 987.418 757.888L981.422 758.1ZM943.422 758.7L937.455 758.072C937.275 759.78 937.836 761.482 938.995 762.75C940.154 764.017 941.8 764.726 943.517 764.699L943.422 758.7ZM944.022 753L942.749 747.136C940.219 747.686 938.326 749.797 938.055 752.372L944.022 753ZM967.522 747.9L968.794 753.764C971.366 753.205 973.273 751.037 973.5 748.416L967.522 747.9ZM968.722 734L974.7 734.516C974.852 732.755 974.219 731.016 972.972 729.764C971.724 728.512 969.987 727.874 968.226 728.021L968.722 734ZM944.622 736L938.631 736.334C938.722 737.951 939.462 739.463 940.683 740.526C941.905 741.589 943.504 742.113 945.118 741.979L944.622 736ZM942.222 693L942.327 687.001C940.66 686.972 939.056 687.638 937.899 688.839C936.743 690.041 936.138 691.669 936.231 693.334L942.222 693ZM976.322 693.6L982.308 694.004C982.419 692.364 981.852 690.751 980.741 689.541C979.629 688.331 978.07 687.63 976.427 687.601L976.322 693.6ZM975.722 702.5L976.37 708.465C979.262 708.151 981.513 705.807 981.708 702.904L975.722 702.5ZM953.622 704.9L947.653 705.51L949.553 724.11L955.522 723.5L961.491 722.89L959.591 704.29L953.622 704.9ZM955.522 723.5L956.032 729.478L980.632 727.378L980.122 721.4L979.612 715.422L955.012 717.522L955.522 723.5ZM980.122 721.4L974.126 721.612L975.426 758.312L981.422 758.1L987.418 757.888L986.118 721.188L980.122 721.4ZM981.422 758.1L981.327 752.101L943.327 752.701L943.422 758.7L943.517 764.699L981.517 764.099L981.422 758.1ZM943.422 758.7L949.389 759.328L949.989 753.628L944.022 753L938.055 752.372L937.455 758.072L943.422 758.7ZM944.022 753L945.294 758.864L968.794 753.764L967.522 747.9L966.249 742.036L942.749 747.136L944.022 753ZM967.522 747.9L973.5 748.416L974.7 734.516L968.722 734L962.744 733.484L961.544 747.384L967.522 747.9ZM968.722 734L968.226 728.021L944.126 730.021L944.622 736L945.118 741.979L969.218 739.979L968.722 734ZM944.622 736L950.613 735.666L948.213 692.666L942.222 693L936.231 693.334L938.631 736.334L944.622 736ZM942.222 693L942.116 698.999L976.216 699.599L976.322 693.6L976.427 687.601L942.327 687.001L942.222 693ZM976.322 693.6L970.336 693.196L969.736 702.096L975.722 702.5L981.708 702.904L982.308 694.004L976.322 693.6ZM975.722 702.5L975.074 696.535L952.974 698.935L953.622 704.9L954.27 710.865L976.37 708.465L975.722 702.5Z" fill="black" mask="url(#path-12-outside-6_130_6)"/>
</svg>
